<?xml version="1.0" encoding="UTF-8"?>
<!DOCTYPE svg PUBLIC "-//W3C//DTD SVG 1.1//EN" "http://www.w3.org/Graphics/SVG/1.1/DTD/svg11.dtd">
<!-- Creator: CorelDRAW 2019 (64-Bit) -->
<svg xmlns="http://www.w3.org/2000/svg" xml:space="preserve" width="25.0364mm" height="22.0739mm" version="1.1" style="shape-rendering:geometricPrecision; text-rendering:geometricPrecision; image-rendering:optimizeQuality; fill-rule:evenodd; clip-rule:evenodd"
viewBox="0 0 253.86 223.82"
 xmlns:xlink="http://www.w3.org/1999/xlink"
 xmlns:xodm="http://www.corel.com/coreldraw/odm/2003">
 <defs>
  <style type="text/css">
   <![CDATA[
    .fil0 {fill:#2B2A29}
   ]]>
  </style>
 </defs>
 <g id="Layer_x0020_1">
  <metadata id="CorelCorpID_0Corel-Layer"/>
  <path class="fil0" d="M87.57 48.3c44.17,-4.19 79.95,-15.31 117.77,-35.12 1.85,-0.97 4.68,-3.2 6.79,-2.72 0.74,5.66 0.26,136.24 0.26,153.59 0,4.14 -3.98,0.89 -5.98,-0.19 -37.16,-19.98 -75.54,-31.76 -118.86,-35.68 -0.32,-3.17 -0.35,-76.88 0.03,-79.88zm4.37 127.16c-4.43,-12.54 -9.33,-25.16 -13.62,-37.59l-31.18 0c0.26,2.16 12.48,35.05 13.55,37.98 1.66,4.51 12.13,34.21 13.71,37.5 4.84,0.28 10.34,0.05 15.25,0.05 17.08,0 16.53,1.35 14.23,-4.98l-5.1 -14.03c-2.23,-6.3 -4.57,-12.46 -6.86,-18.93zm130.76 -63.02c11.27,-1.45 20.89,-11.67 20.91,-24.19 0.02,-12.43 -9.64,-22.96 -20.87,-24.24l-0.04 48.43zm-212.23 -41.06l0 33.76c0,6.71 6.33,5.46 13.6,5.4l0.08 -44.57c-7.6,-0.09 -13.68,-1.32 -13.68,5.42zm30.42 -22.2c0.27,-0.19 -0.19,-0.2 0.97,-0.44 0.35,-0.07 0.91,-0.06 1.28,-0.07 6.17,-0.08 32.26,-0.23 33.96,0.21 0.52,2.77 0.28,77.52 -0.05,78.7 -3.46,0.65 -13.81,0.13 -17.99,0.13 -2.55,0 -16.26,0.41 -17.53,-0.33 -3.13,-0.04 -5.55,-2.45 -6.55,-4.89 -1.01,-2.47 -0.56,-7.88 -0.56,-10.98 0,-6.44 -0.47,-54.41 0.39,-57.06 0.77,-2.39 3.23,-5.1 6.06,-5.27zm178.56 -46c-1.46,-0.67 -2.22,-1.69 -4.31,-2.48 -1.97,-0.75 -3.86,-0.78 -6.07,-0.62 -3.25,0.89 -15.34,7.6 -20.05,9.84 -20.89,9.94 -44.03,18.35 -67.19,22.92 -21.38,4.21 -32.38,5.58 -54.48,5.67 -6.7,0.03 -24.31,-0.64 -29.61,0.73 -12.6,3.26 -13.09,15.5 -13.75,16.15 -2.29,2.25 -14.21,-3.53 -21.32,7.03 -3.79,5.63 -2.45,18.04 -2.45,25.84 0,7.91 -1.32,20.21 2.45,25.83 4.85,7.22 11.09,6.77 18.19,6.71 6.17,-0.05 1.85,0.71 5.52,7.48 4.17,7.7 8.42,6.27 9.58,9.52l27.93 77.15c1.62,4.53 4.69,8.2 10.14,8.65 5.64,0.47 13.26,0.04 19.12,0.04 5.95,0 12.95,0.87 17.23,-1.92 3.53,-2.3 6.31,-7.66 4.4,-13.39 -4.32,-12.99 -10.45,-28.45 -15.16,-41.82 -1.31,-3.73 -9.74,-26.05 -9.89,-27.81 15.13,0.91 33.65,4.93 47.54,8.61 23.26,6.16 40.03,13.36 60.51,23.58 6.27,3.13 12.81,8.87 20.19,3.32 6.47,-4.87 4.74,-13.37 4.74,-23.21 0,-4.77 -0.24,-25.08 0.09,-28.02 3.06,-1.34 12.57,-0.96 21.75,-11.02 4.85,-5.31 9.31,-13.39 9.31,-23.69 0.01,-14.04 -7.84,-25.11 -18.68,-30.89 -6.2,-3.31 -8.84,-2.64 -12.34,-3.82 -1.04,-6.22 1.04,-40.98 -0.93,-46.26 -0.81,-2.16 -2.03,-3 -2.45,-4.11z"/>
 </g>
</svg>
