<?xml version="1.0" encoding="UTF-8"?>
<!DOCTYPE svg PUBLIC "-//W3C//DTD SVG 1.1//EN" "http://www.w3.org/Graphics/SVG/1.1/DTD/svg11.dtd">
<!-- Creator: CorelDRAW X7 -->
<svg xmlns="http://www.w3.org/2000/svg" xml:space="preserve" width="25.3774mm" height="25.3774mm" version="1.1" style="shape-rendering:geometricPrecision; text-rendering:geometricPrecision; image-rendering:optimizeQuality; fill-rule:evenodd; clip-rule:evenodd"
viewBox="0 0 611 611"
 xmlns:xlink="http://www.w3.org/1999/xlink">
 <defs>
  <style type="text/css">
   <![CDATA[
    .fil1 {fill:#2E4764}
    .fil2 {fill:#3F5F87}
    .fil0 {fill:white}
   ]]>
  </style>
 </defs>
 <g id="Layer_x0020_1">
  <metadata id="CorelCorpID_0Corel-Layer"/>
  <circle class="fil0" cx="306" cy="306" r="306"/>
  <g id="_2164700552272">
   <path class="fil1" d="M485 215l-173 95c0,10 1,45 -1,51 4,0 83,44 93,50l93 50 21 -38c-26,-15 -53,-29 -80,-43 -27,-15 -54,-29 -81,-45l161 -88 -21 -38c-5,2 -7,4 -12,6z"/>
   <path class="fil1" d="M109 249c7,3 33,18 41,22 30,17 68,36 97,53 7,5 13,7 19,12l-47 25 -113 62c4,9 18,31 19,38 9,-2 38,-20 47,-25 26,-13 121,-68 139,-75 2,-6 1,-41 1,-51 -2,0 -2,1 -2,-1 -4,-1 -76,-41 -87,-47l-85 -47 -11 -6c-4,5 -18,32 -21,37l3 3z"/>
   <path class="fil2" d="M138 215l85 47c11,6 83,46 87,47 5,-6 0,-68 1,-81l-137 -78c-3,4 -35,60 -36,65z"/>
   <path class="fil2" d="M311 228c-1,13 4,75 -1,81 0,2 0,1 2,1l173 -95 -33 -61 -2 -3 -139 77z"/>
  </g>
 </g>
</svg>
