<?xml version="1.0" encoding="UTF-8"?>
<!DOCTYPE svg PUBLIC "-//W3C//DTD SVG 1.1//EN" "http://www.w3.org/Graphics/SVG/1.1/DTD/svg11.dtd">
<!-- Creator: CorelDRAW 2019 (64-Bit) -->
<svg xmlns="http://www.w3.org/2000/svg" xml:space="preserve" width="23.7862mm" height="25.0362mm" version="1.1" style="shape-rendering:geometricPrecision; text-rendering:geometricPrecision; image-rendering:optimizeQuality; fill-rule:evenodd; clip-rule:evenodd"
viewBox="0 0 227.99 239.97"
 xmlns:xlink="http://www.w3.org/1999/xlink"
 xmlns:xodm="http://www.corel.com/coreldraw/odm/2003">
 <defs>
  <style type="text/css">
   <![CDATA[
    .fil0 {fill:#2B2A29}
   ]]>
  </style>
 </defs>
 <g id="Layer_x0020_1">
  <metadata id="CorelCorpID_0Corel-Layer"/>
  <path class="fil0" d="M93.96 105.39l10.25 -0.48 1.92 8.74c-4.73,3.06 -8.8,1.3 -10.78,6.9 -1.36,3.84 -2.56,9.94 -3.31,14.09 6.4,6.49 5.3,4.22 8.89,7.66l-4.76 8.25c-4.7,-1.59 -6.52,-4.28 -12.32,-3.91l-3.24 1.36c-2.21,3.07 -6.22,3.43 -8.21,5.87 -2.6,3.2 -0.85,8.63 -0.95,12.82l-9.19 1.77c-4.87,-7.7 -0.5,-10.79 -11.81,-12.97 -12.26,-2.37 -9.67,0.71 -15.95,6.82 -3.94,-0.78 -5.58,-4.04 -9.46,-5.21 3.17,-9.99 8.54,-5.93 1.1,-18.12 -5.98,-9.8 -5.41,-5.8 -16.77,-5.68l-1.96 -8.86c9.74,-5.71 10.7,1.23 13.47,-12.79 1.42,-7.22 1.55,-10.42 -7.51,-15.47 0.81,-3.69 3.02,-6.65 4.94,-8.98 10.3,3.24 7.43,7.65 18.52,0.28 10.91,-7.26 6.32,-4.28 5.51,-16.74l9.89 -1.62c5.59,10.75 -2.15,8.96 13.15,12.92 10.15,2.63 10.29,-1.16 15.5,-6.99l7.55 5.45c-2.23,4.81 -5.92,7.47 -2.05,13.6 2.45,3.88 4.64,8.09 7.59,11.29zm-54.08 -42.14c-6.75,7.1 -5.37,3.53 -3.6,15.7 -1.53,1.19 -3.85,2.98 -5.73,3.86 -6.3,2.96 -11.75,-9.3 -19.04,0.91 -6.87,9.62 -8.7,15.31 3.11,21.92l-1.81 8.77c-3.76,2.09 -8.5,1.97 -11.1,5.01 -3.27,3.83 -0.97,8.37 -0.21,13.22l1.14 4.68c7.8,4.88 1.89,3.24 15.82,2.45 1.08,2.96 2.69,4.32 3.7,7.02 -5.49,10.2 -7.98,11.18 2.97,18.64 11.97,8.15 11.84,4.89 19.4,-3.49 2.79,0.2 5.65,0.6 7.84,1.82 3.7,8.08 2.64,14.14 14.38,11.48 13.11,-2.97 12.4,-3.35 11.54,-17.1 5.58,-2.02 5.38,-5.51 11.29,-2.46 5.62,2.9 9.54,3.03 12.96,-1.75 11.81,-16.5 2.22,-16.53 -2.44,-21.77 1.36,-6.14 0.97,-8.18 3.51,-9.5l6.37 -2.37c3.2,-0.23 3.76,-15.56 0.09,-19.75 -3.68,-4.05 -4.82,-2.98 -12.81,-2.65 -1.13,-1.5 -2.57,-3.91 -3.58,-5.69 -4.15,-7.28 7.78,-10.79 -0.6,-17.84 -17.27,-14.54 -19.26,-0.3 -22.11,1.07 -1.72,0.2 -3.64,-0.38 -5.79,-0.87 -4.12,-0.95 -4.01,-0.22 -4.56,-4.08 -3.11,-5.87 -1.29,-9.21 -10.69,-8.69 -2.91,0.95 -6.94,1.78 -10.04,1.46zm168.96 93.57c-2.75,6.98 -8.73,3.65 -11.24,7.41 -1.47,2.21 -0.78,8.64 -10.42,9.11 -6.86,0.34 -10.77,-0.95 -12.61,-6.26 -3.05,-8.8 -6.33,-1.62 -11.1,-8.18 -3.32,-4.57 -1.36,-10.65 2.23,-12.68 3.84,-2.17 33.83,-1.67 36.8,-1.06 4.74,0.97 8.64,5.79 6.33,11.65zm-11.59 -89.95c8.56,-0.1 22.94,14.29 23.45,30.57 0.43,13.64 -9.05,29.04 -12.9,41.5 -12.25,-2.59 -30.58,-1.48 -43.58,-0.52 -1.84,-6.31 -8.15,-18.68 -8.38,-24.18 -6.26,-7.27 -4.18,-26.77 5.11,-38.36 6.92,-8.62 23.2,-14.11 33.59,-10.56 0.11,0.04 0.92,0.37 1.14,0.47 2.41,1.21 0.38,0.02 1.58,1.06zm-44.17 64.08l1.45 2.15c0.09,0.18 0.79,1.94 0.9,2.24 4.69,12.59 1.17,6.57 -0.62,14.66 -2.06,9.29 3.25,15.54 8.82,18.03 6.34,2.83 3.46,1.6 6.6,6.46 1.41,2.17 4.68,4.32 7.84,5.28 10.52,3.22 15.49,-0.86 21.93,-3.38 4.72,-11.13 8.25,-6.26 13.03,-12.2 1.73,-2.15 3.29,-5.36 3.62,-8.9 0.61,-6.53 -1.44,-6.28 -2.38,-10.3 -0.97,-4.16 11.21,-29.57 12.76,-36.98 5.28,-25.21 -12.13,-47.43 -35.27,-50.55 -4.09,-0.55 -8.5,0.3 -12.29,-0.32 -1.29,0.84 -41.37,9.69 -33.14,51.8 1.18,6.02 6.9,18.36 6.76,22.01zm-65.72 -102.57c-18.61,8.88 -20.94,19.03 -26.82,16.13 -10.85,-5.37 12.86,-20.53 16.88,-21.77 5.65,-6.99 30.17,-11.04 41.9,-10.23 26.16,1.81 32.65,14.23 40.31,11.99 1.38,-4.59 0.06,-8.71 0.87,-13.17 0.83,-4.55 6.33,-5.33 8.7,-2.35 2.29,2.89 1.23,22.46 1.23,27.6 0,9.92 -2.36,8.09 -18,10.69 -8.29,1.38 -20.06,5.99 -18.46,-5.46 3.2,-2.29 2.55,-2.12 6.93,-2.82 14.15,-2.28 6.17,-8.29 -2.93,-11.88 -5.04,-1.99 -10.11,-3.53 -15.82,-4.23 -13.67,-1.68 -23.67,0.62 -34.8,5.51zm-9.62 -15.22c-1.89,2.14 -10.85,7.01 -13.56,9.13 -2.74,2.16 -3.78,3.07 -6.14,5.41 -1.73,1.72 -3.88,4.28 -6.22,5.47l0.18 0.3c-4.03,11.93 2.58,19.07 11.03,18.91 5.23,-0.1 8.23,-3.09 10.46,-5.36 15.74,-16.06 36.29,-21.27 59.62,-14.07 -3.25,3.59 -6.67,4.09 -6.77,11.34 -0.08,6.13 3.66,9.93 7.64,11.53 4.9,1.98 27.19,-2.25 33.46,-3.62 12.86,-2.8 10.19,-14.39 10.19,-27.98 0,-13.56 1.08,-25.13 -15.15,-24.16 -6.85,2.62 -9.23,6.18 -9.4,14.86 -12.83,-5.13 -20.43,-9.49 -36.84,-9.81 -23.26,-0.45 -33.05,7.65 -38.49,8.05zm-25.67 87.84c11.43,-3.07 20.23,4.64 22.52,13.37 2.92,11.14 -4.82,20.08 -13.18,22.27 -24.23,6.35 -32.38,-29.46 -9.34,-35.64zm29.74 25.9c-0.2,-3.65 0.91,-6.54 0.48,-10.91 -0.34,-3.52 -1.88,-6.27 -2.13,-8.96l-1.63 -1.91c-3.46,-4.4 -5.54,-6.95 -10.7,-9.44 -5.42,-2.62 -12.33,-3.25 -18.2,-1.63 -27.26,7.54 -23.26,47.78 4.17,50.38 20.5,1.94 25.82,-15.36 28,-17.53zm78.26 -25.59c10.59,9.72 2.73,-14.47 23.14,-21.6 6.53,-2.28 8.78,-1.93 5.85,-8.3 -7.77,-0.95 -16,4.57 -20.21,8.56 -4.01,3.79 -9.08,12.7 -8.78,21.34zm-21.46 110.28c18.61,-8.88 20.94,-19.03 26.82,-16.13 10.85,5.37 -12.86,20.53 -16.88,21.77 -5.65,6.99 -30.17,11.04 -41.9,10.23 -26.16,-1.81 -32.65,-14.23 -40.31,-11.99 -1.38,4.59 -0.06,8.71 -0.87,13.17 -0.83,4.55 -6.34,5.33 -8.7,2.35 -2.29,-2.89 -1.23,-22.46 -1.23,-27.6 -0,-9.92 2.36,-8.09 18,-10.69 8.29,-1.38 20.06,-5.99 18.46,5.46 -3.2,2.29 -2.55,2.12 -6.93,2.82 -14.15,2.28 -6.17,8.29 2.93,11.88 5.04,1.99 10.11,3.53 15.82,4.23 13.67,1.68 23.67,-0.62 34.8,-5.51zm9.62 15.22c1.89,-2.14 10.85,-7.01 13.56,-9.13 2.74,-2.16 3.78,-3.07 6.14,-5.41 1.73,-1.72 3.88,-4.28 6.22,-5.47l-0.17 -0.3c4.03,-11.93 -2.58,-19.07 -11.03,-18.91 -5.23,0.1 -8.23,3.09 -10.46,5.36 -15.74,16.06 -36.29,21.27 -59.62,14.07 3.25,-3.59 6.67,-4.09 6.77,-11.34 0.08,-6.13 -3.66,-9.93 -7.64,-11.53 -4.9,-1.98 -27.18,2.25 -33.46,3.62 -12.86,2.8 -10.19,14.39 -10.19,27.98 0,13.56 -1.08,25.13 15.15,24.16 6.85,-2.62 9.23,-6.18 9.4,-14.86 12.83,5.13 20.43,9.49 36.84,9.81 23.26,0.45 33.05,-7.65 38.49,-8.05z"/>
 </g>
</svg>
