<?xml version="1.0" encoding="UTF-8"?>
<!DOCTYPE svg PUBLIC "-//W3C//DTD SVG 1.1//EN" "http://www.w3.org/Graphics/SVG/1.1/DTD/svg11.dtd">
<!-- Creator: CorelDRAW 2019 (64-Bit) -->
<svg xmlns="http://www.w3.org/2000/svg" xml:space="preserve" width="47.0198mm" height="23.8136mm" version="1.1" style="shape-rendering:geometricPrecision; text-rendering:geometricPrecision; image-rendering:optimizeQuality; fill-rule:evenodd; clip-rule:evenodd"
viewBox="0 0 4599.71 2329.57"
 xmlns:xlink="http://www.w3.org/1999/xlink"
 xmlns:xodm="http://www.corel.com/coreldraw/odm/2003">
 <defs>
  <style type="text/css">
   <![CDATA[
    .fil0 {fill:black}
   ]]>
  </style>
 </defs>
 <g id="Layer_x0020_1">
  <metadata id="CorelCorpID_0Corel-Layer"/>
  <path class="fil0" d="M2147.57 2191.63l-932.98 0 0 -358.25c55.55,-13.41 164.76,-78.54 208.82,-109.19 47.9,-34.48 136.02,-107.28 168.59,-155.17l369.74 170.5c57.47,22.99 111.11,74.72 143.68,126.44 63.22,95.79 55.56,193.5 55.56,312.27 0,11.49 -3.83,13.41 -13.41,13.41l0 -0.01zm-1042.18 -2160.96l84.3 0c260.54,15.33 511.51,168.59 559.39,461.7 13.41,80.46 7.67,413.8 7.67,521.08 0,360.16 -80.46,396.56 -84.3,442.54 24.91,7.66 97.71,45.98 130.27,59.39l128.35 57.47c86.21,38.31 164.76,76.63 229.9,143.68 93.86,91.96 124.52,193.49 134.1,304.61l0 304.6 -2295.07 0 0 -304.6c9.58,-113.03 42.14,-214.57 136.02,-308.44 93.87,-91.96 239.47,-143.68 360.16,-199.24 11.49,-5.74 21.07,-11.49 32.57,-15.33l93.87 -42.14c-1.92,-19.15 -1.92,-7.66 -9.59,-24.91 -70.87,-147.51 -74.71,-249.04 -74.71,-423.38 0,-109.19 -5.74,-436.79 7.66,-519.17 47.9,-289.28 298.87,-442.54 559.4,-457.86l0.01 0zm-971.29 2147.55c0,-118.77 -7.66,-214.56 53.64,-310.35 34.48,-53.64 84.3,-103.45 143.68,-128.35l371.66 -170.51c63.22,93.87 279.7,241.38 377.4,264.37l0 358.25 -932.97 0c-9.58,0 -13.41,-1.92 -13.41,-13.41l0.01 0zm555.57 -950.21c32.57,21.08 99.62,101.53 132.18,128.36l49.81 40.23c76.63,45.98 160.92,57.47 245.22,19.16 49.81,-22.99 21.07,-11.49 90.04,11.49 70.88,24.91 159,7.66 214.57,-28.74 19.15,-13.41 26.81,-22.99 45.98,-38.31 34.48,-24.91 105.36,-109.2 137.92,-132.19 -1.91,47.9 -42.14,137.93 -63.21,170.51 -36.4,63.21 -53.64,82.38 -105.37,134.1 -40.23,40.24 -78.54,70.88 -128.35,103.45 -24.91,15.33 -134.1,74.71 -160.92,74.71 -26.82,0 -134.1,-59.38 -157.09,-74.71 -59.39,-36.4 -147.51,-109.19 -189.66,-164.75 -19.15,-24.91 -30.65,-42.15 -47.9,-68.97 -19.15,-34.48 -61.3,-126.44 -63.21,-174.34l-0.01 0zm915.73 0l0 0zm-915.73 0l0 0zm-13.41 -220.3l0 -107.28c65.14,0 141.77,-61.3 185.84,-105.36 40.23,-42.14 84.29,-132.18 84.29,-212.65 51.73,0 97.7,-9.58 157.09,-9.58l88.12 0c59.39,0 105.37,9.58 157.09,9.58 0,114.94 72.8,224.15 162.84,277.78 22.99,13.41 74.71,40.23 107.27,40.23 0,145.6 15.33,99.63 -72.79,187.76l-157.09 157.09c-38.32,38.31 -51.73,55.55 -116.86,55.55 -61.3,0 -91.96,-59.39 -124.52,-82.38 -47.89,32.57 -53.64,82.38 -139.84,82.38 -65.13,0 -118.78,-72.8 -178.17,-132.19 -19.16,-19.15 -153.26,-145.59 -153.26,-160.91l0 -0.01zm812.29 -402.32c26.81,0 42.14,5.75 65.13,9.58 17.24,3.83 45.98,11.49 65.13,13.41l0 128.36c-28.73,-1.92 -68.97,-36.4 -84.29,-53.65 -38.32,-45.98 -32.58,-70.87 -45.98,-97.7zm-812.29 151.35l0 -128.35c42.15,-1.92 84.3,-22.99 130.27,-22.99 -5.75,13.41 -9.58,34.48 -15.33,49.8 -5.74,13.41 -19.15,34.48 -28.73,44.07 -15.33,19.15 -57.47,55.55 -86.21,57.46zm13.41 -272.03c1.92,-44.06 40.24,-107.28 59.39,-136.02 53.64,-80.46 136.02,-128.36 227.97,-155.17 116.86,-32.57 220.32,-34.48 337.17,-1.92 80.46,22.99 130.27,47.9 183.92,103.45 19.15,19.15 30.65,28.73 45.98,51.72 21.07,30.65 59.38,93.87 61.3,137.93l-107.27 -19.15c-208.82,-34.48 -381.23,-40.24 -591.97,-17.25l-162.84 26.82c-21.07,1.91 -34.48,7.66 -53.64,9.58l-0.01 0zm883.16 1572.83l139.85 0 0 -126.44c0,-9.58 -3.83,-13.4 -13.41,-13.4l-126.44 0 0 139.84zm1298.88 -279.7c0,76.63 21.07,80.46 22.99,114.94 -42.14,3.83 -105.37,44.06 -126.44,68.97 -26.81,30.65 -61.3,86.2 -61.3,139.84l0 201.16c0,11.49 15.32,22.99 30.65,26.82l11.49 0c15.33,-3.83 26.82,-15.33 26.82,-40.23 1.91,-105.37 -21.08,-233.72 61.3,-295.03 17.25,-13.41 76.63,-42.14 101.53,-42.14l59.39 49.8c19.15,17.25 44.06,34.48 67.05,45.98 53.64,30.65 95.78,49.81 157.09,70.88 300.77,99.62 749.06,91.96 1017.26,-68.97 95.78,-57.47 101.53,-80.46 128.36,-97.7 193.49,44.06 162.83,164.75 162.83,331.42 0,30.65 11.49,42.14 26.82,45.98l13.41 0c15.32,-3.83 28.73,-15.33 28.73,-26.82l0 -201.16c0,-72.79 -55.55,-149.42 -113.03,-181.99 -15.33,-7.67 -53.64,-24.91 -72.8,-26.82 3.83,-47.9 59.39,-120.69 -19.15,-241.38 -24.91,-36.4 -55.55,-55.55 -74.71,-93.87 -22.99,-45.98 -21.07,-80.46 -21.07,-147.51 0,-49.8 15.32,-136.02 -36.4,-136.02 -22.99,0 -36.4,19.16 -36.4,40.24 0,120.69 -15.32,227.97 55.55,314.18 57.47,67.05 82.38,74.71 82.38,172.42 0,57.47 -63.21,120.69 -95.79,145.59 -143.68,109.2 -375.48,164.76 -559.4,164.76 -187.75,0 -352.49,-5.75 -521.08,-80.46 -84.29,-38.32 -243.3,-124.52 -243.3,-229.9 0,-109.19 32.57,-107.27 80.46,-172.42 70.88,-93.87 55.55,-183.92 55.55,-321.84 0,-201.16 0,-400.4 0,-601.56 0,-218.39 36.4,-339.08 187.75,-484.67 193.5,-187.75 482.77,-197.33 708.83,-47.9 40.23,26.82 84.29,63.21 114.93,103.45 139.85,180.09 134.11,270.12 134.11,524.92l0 327.59c0,40.24 -1.92,76.64 36.39,76.64 22.99,0 36.4,-13.41 36.4,-36.4l0 -513.42c0,-145.59 -53.64,-314.18 -143.68,-415.72 -105.37,-116.86 -191.58,-172.43 -341.01,-218.39 -38.31,-11.49 -80.46,-19.16 -122.6,-21.08l-72.79 0c-90.04,5.75 -182,28.74 -254.8,65.14 -32.57,17.24 -67.05,38.31 -95.78,59.38 -147.51,111.12 -260.55,298.87 -260.55,530.67l0 781.62c0,159 -47.89,137.93 -97.7,220.31 -19.15,30.66 -38.32,74.72 -38.32,120.7l0.02 0.01zm423.38 -1172.44c3.83,-15.33 15.33,-30.65 24.91,-44.06 19.15,-28.73 44.06,-49.81 68.97,-70.88 116.86,-105.36 331.42,-124.52 480.85,-34.48 13.41,9.59 28.73,19.16 42.14,28.74 24.91,19.15 36.4,32.57 53.64,53.64 32.58,34.48 21.08,21.07 47.9,61.31 -15.32,-3.83 -153.25,-99.63 -318.01,-99.63 -128.36,0 -214.57,7.67 -331.43,65.14 -26.81,13.4 -45.98,26.81 -68.97,40.23l0.01 0zm-132.18 258.63c0,128.36 -9.58,287.36 44.06,398.47 17.25,36.4 17.25,51.73 55.55,51.73 13.41,0 26.82,-19.16 26.82,-30.66 0,-22.98 -53.64,-95.78 -53.64,-214.56 0,-47.9 -5.75,-300.77 7.66,-331.43 15.32,-28.73 120.69,-91.95 143.68,-103.44 70.88,-34.48 109.19,-45.98 187.75,-59.39l78.54 -5.75c17.25,0 22.99,1.92 36.4,3.83 90.04,7.66 141.76,13.41 229.89,57.47 40.24,21.07 67.05,36.4 101.53,63.21 9.59,7.67 11.49,11.49 21.07,19.16 26.82,19.15 30.66,36.39 30.66,97.7l0 254.8c0,122.6 -44.06,214.57 -124.52,293.11 -126.44,128.35 -319.94,162.83 -486.6,78.54 -55.55,-26.82 -120.69,-93.87 -136.02,-93.87 -17.24,0 -61.3,30.65 -15.32,72.8 28.73,24.91 78.54,63.21 107.27,78.54 145.59,78.54 310.35,76.63 455.94,3.82 68.97,-34.48 90.04,-55.55 143.69,-107.27 143.68,-143.68 128.35,-333.34 128.35,-526.84 0,-124.52 -28.73,-250.96 -101.53,-344.83 -185.83,-243.3 -542.16,-256.71 -750.97,-38.32 -9.58,11.49 -19.15,22.99 -28.73,34.48 -26.82,34.48 -51.72,84.3 -67.05,124.52 -22.99,59.39 -34.48,143.68 -34.48,224.15l0 0.01zm67.05 883.16c0,49.8 193.5,180.09 398.47,134.1 47.9,-9.58 67.05,-9.58 67.05,-51.72 0,-9.59 -13.4,-28.74 -32.57,-28.74 -36.39,0 -141.76,53.64 -287.36,-17.24 -61.3,-30.66 -82.38,-68.97 -109.19,-68.97 -19.16,0 -36.4,15.32 -36.4,32.57z"/>
 </g>
</svg>
