<?xml version="1.0" encoding="UTF-8"?>
<!DOCTYPE svg PUBLIC "-//W3C//DTD SVG 1.1//EN" "http://www.w3.org/Graphics/SVG/1.1/DTD/svg11.dtd">
<!-- Creator: CorelDRAW X7 -->
<svg xmlns="http://www.w3.org/2000/svg" xml:space="preserve" width="210mm" height="11.6666mm" version="1.1" style="shape-rendering:geometricPrecision; text-rendering:geometricPrecision; image-rendering:optimizeQuality; fill-rule:evenodd; clip-rule:evenodd"
viewBox="0 0 21000 1167"
 xmlns:xlink="http://www.w3.org/1999/xlink">
 <defs>
  <style type="text/css">
   <![CDATA[
    .fil0 {fill:#5FAC50}
   ]]>
  </style>
 </defs>
 <g id="Layer_x0020_1">
  <metadata id="CorelCorpID_0Corel-Layer"/>
  <path class="fil0" d="M11080 642c2,-19 3,-39 3,-59 0,-322 -261,-583 -583,-583 -322,0 -583,261 -583,583 0,20 1,40 3,59l-237 0c0,-226 -182,-409 -408,-409 -226,0 -408,183 -408,409l-463 0 -408 -409 -408 409 -362 0c-26,-101 -117,-175 -226,-175 -109,0 -200,74 -226,175l-6774 0 0 58 6767 0c0,129 104,233 233,233 129,0 233,-104 233,-233l405 0 358 358 358 -358 517 0c28,198 198,350 404,350 206,0 376,-152 404,-350l249 0c54,266 290,467 572,467 282,0 518,-201 572,-467l249 0c28,198 198,350 404,350 206,0 376,-152 404,-350l525 0 359 358 358 -358 396 0c0,129 104,233 233,233 129,0 233,-104 233,-233l6767 0 0 -58 -6774 0c-26,-101 -117,-175 -226,-175 -109,0 -200,74 -226,175l-353 0 -408 -409 -409 409 -471 0c0,-226 -182,-409 -408,-409 -226,0 -408,183 -408,409l-237 0z"/>
 </g>
</svg>
