<?xml version="1.0" encoding="UTF-8"?>
<!DOCTYPE svg PUBLIC "-//W3C//DTD SVG 1.1//EN" "http://www.w3.org/Graphics/SVG/1.1/DTD/svg11.dtd">
<!-- Creator: CorelDRAW 2019 (64-Bit) -->
<svg xmlns="http://www.w3.org/2000/svg" xml:space="preserve" width="22.1979mm" height="18.9326mm" version="1.1" style="shape-rendering:geometricPrecision; text-rendering:geometricPrecision; image-rendering:optimizeQuality; fill-rule:evenodd; clip-rule:evenodd"
viewBox="0 0 306.37 261.3"
 xmlns:xlink="http://www.w3.org/1999/xlink"
 xmlns:xodm="http://www.corel.com/coreldraw/odm/2003">
 <defs>
  <style type="text/css">
   <![CDATA[
    .fil0 {fill:#FEFEFE}
   ]]>
  </style>
 </defs>
 <g id="Layer_x0020_1">
  <metadata id="CorelCorpID_0Corel-Layer"/>
  <g id="_2343388395504">
   <path class="fil0" d="M152.46 158.93l12.78 -0 15.6 0 12.78 -0 10.56 0.07 -0.01 9.12c-0.7,2.7 1.44,0.99 -1.33,2.16l-7.81 0.02 -11.49 -0.02c2.25,3.79 4.06,6.5 5.09,11.7l4.99 -0.34 10.59 0.07 -0.03 11.27 -10.56 0.02 -4.93 0.06 -0.8 2.07c-1.16,4.98 -4.64,10.7 -7.65,12.36 -0.9,1.45 -1.27,1.71 -3.36,2.54 -0.51,0.51 -0.49,0.53 -1.25,1.1l-3.77 1.97c-1.69,0.66 -3.54,1.13 -5.21,1.9 0.59,1.36 -0.07,0.3 1.09,1.75 2.04,2.53 5.79,4.48 7.45,7.82 1.36,0.39 -0.13,-0.39 1.66,0.83 0.48,0.33 0.65,0.49 1.14,0.95 1.3,1.2 1.45,1.33 2.18,2.65 3.42,1.91 7.41,6.19 9.59,9.92l3.26 3.05 -7.22 7.64c-2.13,-1.23 -4.6,-3.39 -5.57,-5.4 -2.42,-1.28 -4.61,-3.35 -6.05,-5.6 -2.36,-1.37 -6.56,-5.75 -7.76,-8.25 -2.62,-1.4 -5.33,-3.93 -6.75,-6.53 -1.77,-0.65 -0.75,-0.12 -2.4,-1.56 -1.66,-1.44 -4.57,-3.85 -5.38,-5.72 -1.43,-0.65 -3.15,-0.89 -4.44,-1.54l-0.03 -5.54 -0 -5.22 4.27 -0.02c4.84,-0 9.44,0.33 14.03,-0.82 7.2,-2 6.31,-4.55 10.1,-6.84l1.04 -3.55 -11.64 0.01 -12.78 -0c-5.88,0.02 -4.79,0.69 -4.79,-5.68 0,-6.36 -1.1,-5.7 4.79,-5.68l12.78 -0 9.22 -0c4.57,0.06 0.98,0.35 2.31,-1.41 -2.08,-2.61 -1.81,-3.17 -4.5,-5.63 -2.57,-2.34 -3.25,-2.41 -6.49,-3.34 -4.72,-1.16 -9.22,-0.82 -14.11,-0.82l-3.63 0c-1.24,-2.36 -0.63,-8.5 -0.53,-11.48l4.95 -0.03zm12.95 -21.91c-8.87,2.37 -13.31,2.99 -21.33,7.84 -2.4,1.45 -3.9,2.81 -5.74,3.14 -0.79,1.08 -0.01,0.16 -1.05,1.36 -0.14,0.16 -0.57,0.62 -0.72,0.77l-5.13 3.7c-0.63,1.52 -0.35,0.85 -1.54,2.38 -0.74,0.96 -1.17,1.49 -1.92,2.38 -1.31,1.55 -2.52,3.41 -3.84,4.44 -0.49,1.22 -1.04,2.36 -1.74,3.45 -1.23,1.89 -0.55,1.19 -2.15,2.4l-4.61 12.45c-1.24,7.86 -2.27,11.62 -2.15,20.3l0.88 8.53 4.31 13.95 4.72 9.03c0.13,0.14 0.31,0.33 0.39,0.43l1.94 2.45c0.86,1.2 1.07,1.63 1.88,3.09 1.61,0.3 1.02,0.38 2.31,1.9 1.05,1.23 1.23,1.56 2.39,2.63 2.07,1.92 3.32,2.36 4.8,4.75 2.39,0.75 4.73,2.58 6.45,4.13l8.32 3.98 16.99 4.8 11.35 -0.39 14.81 -2.64c1.19,-0.84 13.78,-5.05 21.31,-12.05 2.69,-2.5 3.72,-4.28 6.23,-5.98 0.33,-0.4 1.02,-1.19 1.28,-1.44 0.76,-0.74 0.49,-0.48 1.32,-1.11l3.87 -6.44c1.19,-1.85 2.7,-5.38 3.73,-6.34l4.38 -11.92 0.12 -3.04 0.89 -13.91c-0.24,-5.32 -1.06,-10.61 -2.52,-15.29 -0.74,-2.39 -1.46,-4.57 -2.47,-6.77 -1.33,-2.93 -2.15,-3.23 -2.34,-6 -2.05,-1.5 -2.9,-3.75 -4.33,-5.78 -1.35,-1.91 -2.49,-3.35 -3.98,-5.09l-3.59 -3.77c-1.37,-0.7 -3.65,-3.12 -5.4,-4.41 -1.29,-0.95 -1.65,-1.11 -2.97,-1.98 -2.02,-1.33 -1.41,-0.57 -2.83,-2.49l-10.59 -4.66c-2.07,-0.45 -0.81,-0.01 -2.3,-0.58 -1.09,-0.41 -1.1,-0.65 -1.6,-1.03l-13.13 -1.76 -14.73 0.57z"/>
   <path class="fil0" d="M194.09 106.57l-0.93 4.12c-0.57,4.71 0.5,9.29 2.89,11.76 3.01,3.11 7.9,2.42 13.17,2.42l12.78 -0 15.6 0 12.78 -0 15.6 0 12.78 -0 15.6 0 5.49 0.2c1.94,-2.03 7.56,-4.09 6.26,-14.03 -1.46,-6.58 -4.13,-8.83 -11.74,-8.86l-15.6 0 -12.78 -0 -15.6 0 -12.78 -0 -15.6 0 -12.78 -0c-5,0 -9.42,-0.79 -12.8,2.06l-2.34 2.33z"/>
   <path class="fil0" d="M194.09 72.51c-0.18,3.61 -1.63,4.32 -0.93,9.57 0.59,2.37 1.26,3.57 1.86,5.64 4.76,3.1 4.63,3.08 12.8,3.09l15.6 0 12.78 0 15.6 -0 12.78 0 15.6 -0 12.78 0c8.66,-0.01 11.09,-1.28 13.15,-8.55 0.37,-3.46 0.45,-5.44 -0.99,-8.55 -1.34,-2.89 -2.97,-3.56 -3.65,-4.8l-8.51 -0.79 -12.78 0 -15.6 -0 -12.78 0 -15.6 -0 -12.78 0 -15.6 0 -8.39 -0.22 -5.34 4.61z"/>
   <path class="fil0" d="M195.02 37.15c-0.57,1.99 0.21,0.93 -1.15,2.53 -1.01,4.81 -1.25,9.65 1.21,13.49 2.57,4.02 6.8,3.58 12.73,3.58l15.6 0 12.78 0 15.6 -0 12.78 0 15.6 -0 12.78 0c6.71,-0 7.99,-0.89 11.64,-3.55 0.16,-2.26 -0.01,-0.53 0.84,-3.09 0.38,-1.15 0.57,-1.52 0.72,-2.73 0.36,-2.86 -0.29,-4.56 -0.15,-7.18 -2.61,-2.16 -1.26,-3.04 -4.38,-4.91 -2.62,-1.58 -5.53,-1.23 -8.68,-1.23l-12.78 0 -15.6 -0 -12.78 0 -15.6 -0 -12.78 0 -15.6 -0c-8.15,-0 -8.06,-0.01 -12.8,3.09z"/>
   <path class="fil0" d="M195.02 3.14c-0.92,3.03 -2.16,5.66 -2.04,9.67l1.11 5.49c0.15,0.13 0.36,0.15 0.42,0.42 0.12,0.47 2.83,3.01 5.11,3.62 2.42,0.64 6.95,0.36 9.61,0.36l12.78 -0 15.6 0 12.78 -0 15.6 0 12.78 -0 15.6 0c8.17,-0.02 11.38,-3.08 11.99,-11.08 -0.55,-9.13 -4.19,-11.6 -13.4,-11.61l-12.78 0 -15.6 -0 -12.78 0 -15.6 -0 -12.78 0 -15.6 -0c-7.96,-0.01 -8.19,-0.11 -12.79,3.13z"/>
   <path class="fil0" d="M217.04 138.27c2.37,1 4.62,2.73 5.72,4.1l7.82 7.29c1.95,1.92 1.31,0.63 1.72,2.92 0.92,0.67 0.56,0.26 1.73,1.41 0.64,0.64 0.87,0.94 1.32,1.54 1.31,1.77 1.29,1.93 1.99,3.76l13.04 -0.36 15.6 0 12.78 -0 15.6 0c8.18,-0.03 7.79,-1.28 11,-5.75 1.99,-7.77 0.12,-8.85 -1.63,-14.58 -2.74,-1.09 -4.45,-2.35 -9.37,-2.36l-15.6 0 -12.78 -0 -15.6 0 -12.78 -0c-4.02,0 -8.04,-0.01 -12.06,0 -1.84,0.01 -3.93,-0.08 -5.71,-0.03 -2.49,0.06 -3.23,0.14 -4.49,1.15 1.91,0.25 1.1,-1.43 1.69,0.91z"/>
   <path class="fil0" d="M223.42 261.11l12.78 -0 15.6 -0 12.78 0 15.6 -0 12.78 0c8.69,-0 11.02,-1.26 13.15,-8.51 0.37,-3.46 0.46,-5.47 -0.99,-8.59 -1.34,-2.87 -2.95,-3.55 -3.65,-4.8l-8.51 -0.79 -12.78 0 -15.6 -0 -12.78 0c-17.36,0.06 -11.81,-1.71 -18.49,6.35 -9.73,11.75 -14.06,12.36 -17.87,16.34l7.97 0.01z"/>
   <path class="fil0" d="M50.29 239.16c-1.51,1.94 -2.38,1.27 -3.96,5.24 -0.98,2.45 -1.15,5.16 -0.77,8 1.33,5.29 2.3,6.75 6.85,8.5l13.48 0.22 15.6 -0 12.78 0 41.66 -0.03c-3.47,-3.37 -7.82,-5.07 -10.06,-8.34 -1.57,-1.47 -1.3,-1.14 -2.01,-2.59 -3.78,-2.02 -3.12,-2.33 -5.5,-5.34 -1.92,-2.43 -2.93,-3.62 -4.47,-6.29l-4.02 -0.1 -15.6 -0 -12.78 0 -15.6 -0 -13.44 0.22 -2.17 0.52z"/>
   <path class="fil0" d="M47.94 138.55c-2.02,5.74 -3.51,6.97 -1.65,14.57 2.4,3.97 1.48,3.74 6.09,5.59l14.94 0.22 12.78 -0 15.6 0 12.78 -0c10,-0 4.76,-3.41 10.37,-6.09 0.54,-2.11 1.47,-3.97 4.11,-4.74 2.13,-3.75 6.92,-7.72 11.06,-9.72 0.48,-0.89 0.76,-0.86 1.93,-2.09l-11.86 -0.06 -15.6 0.01 -12.78 -0 -15.6 0 -12.78 -0 -14.94 0.21c-1.95,0.77 -3.19,1.56 -4.43,2.1z"/>
   <path class="fil0" d="M247.08 181.63l1.9 10.64 1.41 0.72 15.6 0.01 12.78 -0 15.6 0c8.16,-0.02 11.36,-3.07 11.99,-11.04 -0.54,-9.15 -4.16,-11.64 -13.4,-11.65l-12.78 0 -36.46 0.28 3.36 11.05z"/>
   <path class="fil0" d="M45.39 183.11c0.75,5.91 2.62,7.92 6.99,9.67l14.94 0.22 12.78 -0 15.6 0 6.67 -0.16 1.89 -11.19 3.27 -11.29 -13.24 -0.05 -12.78 0 -15.6 -0 -13.4 0.22c-5.25,1.87 -7.31,5.35 -7.11,12.59z"/>
   <path class="fil0" d="M247.97 211.19c0.29,4.19 -1.36,9.41 -3.08,13.06l-0.8 2.71 36.09 0.09 12.78 0c6.71,-0.01 7.99,-0.89 11.64,-3.55 0.17,-2.24 -0,-0.54 0.84,-3.09 0.37,-1.12 0.57,-1.54 0.72,-2.73 0.36,-2.85 -0.29,-4.54 -0.14,-7.16 -2.6,-2.18 -1.27,-3.06 -4.38,-4.93 -2.62,-1.58 -5.53,-1.23 -8.68,-1.23l-12.78 0 -15.6 -0 -12.78 0 -2.46 0.32c-0.26,2.45 -0.2,4.97 -1.36,6.5z"/>
   <path class="fil0" d="M46.28 209.99c-1.89,7.52 0.09,8.16 0.79,13.68 1.73,1.19 2.78,2.19 5.39,3.16l13.44 0.22 15.6 -0 12.78 0 13.22 -0.05 -0.79 -2.65c-1.41,-3.52 -3.74,-9.28 -3.04,-13.44 -0.1,-0.17 -0.2,-0.41 -0.26,-0.55l-1.05 -5.85 -8.08 -0.15 -12.78 0 -15.6 -0 -13.44 0.22c-5.07,1.87 -3.56,1.85 -6.18,5.41z"/>
   <path class="fil0" d="M9.14 177.21c-2.09,1.7 -1,0.61 -0.97,3.76 1.13,1.18 0.48,-0.04 1.48,2.27 0.76,1.77 0.54,1.55 1,3.37 1.43,1.1 3.69,6.58 3.87,8.66l2.7 3.8 7.54 -3.15 0.16 0.23 2.07 -2.44c-2.81,-6.5 -6.67,-12.08 -8.38,-19.58l-9.45 3.08z"/>
   <path class="fil0" d="M25.13 54.64c0.08,1.02 0.91,1.21 -0.4,0.71l-5.05 8.41c1.41,1.34 7.56,5.05 9.31,5.84 0.51,-0.58 0.6,-0.76 1.05,-1.19 0.73,-0.69 0.63,-0.59 1.33,-1.12 0.33,-2.11 4.54,-7.93 6.17,-8.63 0.73,-2.3 1.91,-3.55 3.21,-4.81 1.43,-2.35 0.25,-0.17 0.93,-2.05 -0.65,-0.66 -1.57,-1.34 -1.83,-1.6 -1.02,-1 -0.67,-0.26 -0.94,-1.21 -2.99,-1.42 -3.19,-2.1 -5.67,-3.6 -0.84,0.57 -0.32,0.17 -1.17,0.99 -0.01,0.01 -0.9,0.97 -1.02,1.11l-4.63 6.06c-0.66,0.66 -0.55,0.51 -1.31,1.1z"/>
   <path class="fil0" d="M1.09 112.7c0.39,3.14 -0.35,5.35 -0.67,8.63l-0.42 9.79 11.66 0.55 -0.02 -6.8c0.11,-3.17 0.41,-5.67 0.91,-8.64 0.16,-0.98 0.54,-2.86 0.58,-3.67 0.18,-3.32 0.5,-1.39 -0.6,-3.48l-1.99 0.14 -8.08 -0.99 -1.38 4.47z"/>
   <path class="fil0" d="M44.7 39.9c1.57,0.96 0.98,0.78 2.4,2.33 1.16,1.27 0.76,1.08 2.48,2.17l1.92 -1.36 5.18 -4.07c0.39,-1.45 5.15,-4.52 6.56,-5.49 0.31,-0.21 0.9,-0.61 1.26,-0.79 1.62,-0.82 -0.77,-0.03 1.33,-0.49 1.26,-3.45 -2.19,-4.03 -5.37,-10.26 -4.44,1.82 -14.64,10.78 -18.2,14.3l2.46 3.67z"/>
   <path class="fil0" d="M82.05 9.64c-1.62,1.81 -2.39,1.8 -4.8,2.52l-6.24 3.36 4.42 9.99c5.05,-1.03 13.1,-6.11 20.27,-7.87l-3.54 -10.61c-4.09,0.39 -6.32,2.62 -10.1,2.62z"/>
   <path class="fil0" d="M10.65 80.18c-0.84,3.2 0.08,0.57 -0.67,2.23 -0.52,1.16 -0.49,0.75 -1.09,1.38 0.01,2.7 -2.43,9.82 -4.21,11.79 1.39,0.59 3.45,1.36 5.1,2.17l5.69 1.83 1.43 -2.38 6.58 -18.78c-3.26,-0.28 -6.42,-2.58 -9.69,-3.92l-3.15 5.68z"/>
   <path class="fil0" d="M138.81 7.8l0.04 3.55 13.23 1.66 8.17 1.16 0.78 -2.12 1.04 -8.94 -9.15 -1.46c-0.97,-0.22 -0.93,-0.25 -1.8,-0.54 -0.16,-0.05 -0.48,0 -0.6,-0.26 -0.11,-0.26 -0.41,-0.17 -0.6,-0.28l-10.72 0.1 -0.4 7.12z"/>
   <path class="fil0" d="M1.52 153.09l2.53 13.47 6.17 -1.41 4.83 -1.24 -2.06 -10.73c-0.38,-2.01 -0.66,-4.21 -0.96,-6.34 -0.37,-2.65 -0.01,-4.36 -2.14,-4.56l-9.76 1.55 1.39 9.27z"/>
   <path class="fil0" d="M109.04 2.28l-4.75 0.75 1.17 9.02 0.44 1.9 2.54 0.44c3.17,-2.02 10.63,-2.36 15.01,-2.59l4.1 0.26 0.22 -6.67 -0.87 -4.64 -3.6 0.07c-4.69,-0.59 -9.61,0.8 -14.27,1.47z"/>
  </g>
 </g>
</svg>
