<?xml version="1.0" encoding="UTF-8"?>
<!DOCTYPE svg PUBLIC "-//W3C//DTD SVG 1.1//EN" "http://www.w3.org/Graphics/SVG/1.1/DTD/svg11.dtd">
<!-- Creator: CorelDRAW 2019 (64-Bit) -->
<svg xmlns="http://www.w3.org/2000/svg" xml:space="preserve" width="25.0363mm" height="17.1281mm" version="1.1" style="shape-rendering:geometricPrecision; text-rendering:geometricPrecision; image-rendering:optimizeQuality; fill-rule:evenodd; clip-rule:evenodd"
viewBox="0 0 274.79 187.99"
 xmlns:xlink="http://www.w3.org/1999/xlink"
 xmlns:xodm="http://www.corel.com/coreldraw/odm/2003">
 <defs>
  <style type="text/css">
   <![CDATA[
    .fil0 {fill:#FEFEFE}
   ]]>
  </style>
 </defs>
 <g id="Layer_x0020_1">
  <metadata id="CorelCorpID_0Corel-Layer"/>
  <g id="_2343067411984">
   <path class="fil0" d="M37.9 63.25c-4.38,10.46 -9.13,17.11 -10.16,30.8 -0.47,6.28 0.44,3.85 -3.18,7.11 -1.62,1.46 -3.1,3.67 -3.98,6.35 -3.89,11.9 6.94,16.2 6.42,23.95 -0.2,3.09 -1.23,5.8 -2.22,8.31 -5.05,12.83 -16.72,28.05 -24.78,37.94 2.48,3.16 13.93,8.52 18.08,9.71 8.84,2.52 14.63,-4.04 17.98,-8.8 9.1,-12.96 8.12,-29.08 5.67,-46.38 -0.95,-6.69 -1.68,-6.02 1.69,-10.75 4.66,-6.55 4.82,-13.94 -1.12,-19.34 -2.96,-2.69 -2.04,-7.82 -1.12,-11.93 1.72,-7.72 5.23,-13.89 9.14,-18.92 4.3,-5.53 9.87,-7.02 17.69,-10.37 12.87,-5.51 26.29,-10.97 39.45,-16.16 4.18,-1.65 26.5,-10.96 29.72,-11.67 4.45,-0.99 8.81,1.86 8.63,5.29 -0.22,4.31 -12.66,8.33 -17.23,10.27l-58.29 23.92c-0.14,0.07 -0.56,0.33 -0.67,0.4l-0.65 0.48c10.72,3.19 21.69,7.26 32.15,10.74 10.41,3.46 22.14,7.11 32.14,11.18 7.09,2.88 11.13,1 17.69,-1.21 5.4,-1.81 10.71,-3.66 16.17,-5.49 31.23,-10.51 65.91,-22.14 96.36,-33.09 4.48,-1.61 12.84,-3.19 11.06,-9.47 -1.06,-3.73 -10.32,-5.85 -14.39,-7.24 -11,-3.75 -21.49,-7.27 -32.41,-10.91 -25.78,-8.59 -55.12,-17.77 -80.57,-26.72 -6.68,-2.35 -11.42,-1.07 -18.06,1.16 -37.26,12.49 -76.37,24.36 -113.24,37.39 -2.44,0.86 -5.95,1.82 -7.45,3.38 -10.62,11.01 15.6,14 29.48,20.07z"/>
   <path class="fil0" d="M54.91 99.92c4.76,2.21 8.63,8.46 9.91,15.16 1.55,8.12 -3.91,14.74 -5.48,18.93 5.65,5.74 10.74,9.27 20.03,12.79 33.92,12.88 106.16,14.35 136.05,-9.34 11.43,-9.06 10.97,-11.58 10.97,-21.26 0,-5.64 -0.76,-28.83 0.37,-32.37 -6.4,-0.15 -77.3,26.94 -85.27,26.96 -8.21,0.02 -34.1,-10.09 -43.03,-13.1 -6.13,-2.06 -39.07,-14.15 -41.86,-13.8l-1.69 16.03z"/>
  </g>
 </g>
</svg>
