<?xml version="1.0" encoding="UTF-8"?>
<!DOCTYPE svg PUBLIC "-//W3C//DTD SVG 1.1//EN" "http://www.w3.org/Graphics/SVG/1.1/DTD/svg11.dtd">
<!-- Creator: CorelDRAW 2019 (64-Bit) -->
<svg xmlns="http://www.w3.org/2000/svg" xml:space="preserve" width="19.7286mm" height="24.3124mm" version="1.1" style="shape-rendering:geometricPrecision; text-rendering:geometricPrecision; image-rendering:optimizeQuality; fill-rule:evenodd; clip-rule:evenodd"
viewBox="0 0 154.31 190.17"
 xmlns:xlink="http://www.w3.org/1999/xlink"
 xmlns:xodm="http://www.corel.com/coreldraw/odm/2003">
 <defs>
  <style type="text/css">
   <![CDATA[
    .fil0 {fill:#2B2A29}
   ]]>
  </style>
 </defs>
 <g id="Layer_x0020_1">
  <metadata id="CorelCorpID_0Corel-Layer"/>
  <path class="fil0" d="M32.38 45.64l12.8 0.04c0.33,4.59 0.85,9.42 0.01,13.75l-12.56 0.09 -0.24 -13.88zm106.38 13.22c-2.6,0.97 -5.34,0.77 -8.68,0.63l-0.22 -13.82c7.96,-0.15 9.23,-0.95 9.31,4.15 0.05,3.05 0.1,6.31 -0.41,9.05zm-57.34 -4.02c2.59,1.57 3.3,2.94 7.24,2.73 4.19,-0.23 4.94,-2.36 6.82,-3.6 7,4.78 14.1,0.04 14.14,-8.27l15.56 -0.08 -0.02 13.82c-10.36,0.69 -33.76,0.09 -46.35,0.08 -6.47,-0.01 -8.31,-0.03 -14.22,-1.16 0.07,-2.01 -0.6,-5.72 1.41,-6.29 2.27,-0.64 0.7,-0.63 2.01,1.24 3.9,5.56 8.1,4.35 13.41,1.54zm-66.23 -2.17l12.47 -5.72 0.08 11.19 -12.55 -5.46zm76.68 -2.3c-1.06,3.45 -7.31,3.87 -7.86,-1.54 -0.23,-2.24 -0.28,-13.26 0.28,-14.88 1.18,-3.43 7.48,-3.61 7.83,1.85 0.13,2.02 0.13,13.31 -0.25,14.56zm-17.9 -19.03c5.72,-1.9 5.36,4.92 5.35,9.13 -0.01,4.05 1.26,10.79 -2.8,11.82 -5.88,1.49 -5.33,-4.77 -5.33,-9.21 0.01,-4.09 -1.27,-10.39 2.78,-11.74zm30.32 17.99c-1.89,2.53 -6.13,2.04 -7.11,-0.7 -0.75,-2.11 -0.81,-8.39 0.43,-10.21 1.71,-2.51 6.04,-2.06 7.03,0.71 0.66,1.84 0.66,8.84 -0.36,10.2zm-40.58 -1.58c-5.06,-8.53 -5.52,-4.97 -5.43,-10.41 0.14,-8.48 6.53,-5.68 7.49,-4.15 1.3,2.08 0.73,6.68 0.73,9.37 -0.03,3.21 -0.13,4.49 -2.78,5.2zm-12.7 50.03l-0.03 14.81 1.49 0.7 2.63 -0.15c1.07,-3.47 0.13,-8 0.69,-11.88 8.37,-0.91 38.25,1.23 42.97,-0.7 1.3,-5.62 -2.96,-4.1 -14.21,-4.1 -6.43,0 -12.85,0 -19.28,0 -2.09,-0.31 -7.55,-7.21 -8.61,-8.82 -2.14,-3.25 -4.3,-7.65 -5.63,-12.08 -1.97,-6.59 -1.68,-9.07 -1.05,-15.85 0.56,-6.02 -0.13,-11.18 -0.16,-17.08 4.29,-0.5 7.61,3.27 8.95,5.88 4.43,8.66 -3.67,12.76 4.48,14.29 4.13,0.78 7.17,2.27 10.49,4.64 0.88,0.63 1.6,1.35 2.5,2.18 1.44,1.32 1.31,1.32 2.35,2.86 1.41,2.08 2.24,4.78 5.08,4.28 2.75,-2.26 0.48,-4.9 -0.99,-6.78l-5 -5.79 30.72 0.02c-0.07,3.5 -0,6.81 -0.02,10.12 -0.02,3.94 -1.13,7.6 3.9,6.76 1.73,-3.09 0.71,-12.26 0.81,-16.87 28.24,-0.41 30.66,3.41 30.71,-12.82 0.04,-14.26 -7.08,-9.85 -33.71,-10.45 -1.69,-2.76 -1.07,-10.87 -13.55,-7.96 -2.41,-4.77 -2.38,-2.92 -4.73,-5.74 -7.74,0.06 -1.76,-2.12 -10.04,1.98 -4.21,-3.57 -9.81,-3.71 -13.16,0.03 -6.69,-4.76 -14.32,-3.18 -15.03,8.9 -5.15,-0.51 -5.79,0.09 -8.61,2.8 -4.49,0.07 -9.73,-0.27 -14.08,0.01 -2.46,0.16 -7.61,2.77 -10.15,3.9 -3.42,1.52 -6.34,2.68 -9.74,4.33 -4.06,1.97 -10.83,-0.5 -10.98,3.26 -0.16,4.13 6.6,1.43 10.81,3.41 3,1.41 17.55,8.12 19.64,8.32 3.95,0.37 10.1,0.02 14.27,0 0,6.74 1.52,12.95 3.93,18.41 3.5,7.92 7.63,11.7 8.62,13.87 -3.63,-0.13 -3.85,-0.57 -6.26,1.31zm51.69 38.16c0.92,2.16 1.94,4.14 2.36,6.78 -1.89,0.79 -2.83,2.06 -4.52,3.34 -2.87,2.18 -1.88,2.19 -2.02,6.42 -0.13,3.73 -0.59,5.02 5.97,9.66l-2.55 6.5c-2.57,0 -4.69,-0.48 -6.98,-0.47 -3.19,0 -3.01,1 -4.58,2.63 -4.61,4.82 -3.42,1.53 -3.41,11.87 -2.01,0.87 -4.22,1.99 -6.7,2.3l-4.38 -5.62c-1.5,-1.26 -6.49,-1.03 -9.06,-1.09 -2.81,2.04 -3.8,4.15 -6.77,6.16l-5.77 -2.64c0.09,-2.39 0.53,-4.78 0.51,-6.92 -0.03,-3.04 -1.26,-2.98 -2.72,-4.49 -3.95,-4.09 -1.33,-3.72 -11.89,-3.35 -0.82,-1.91 -1.94,-4.49 -2.12,-6.79 0.84,-0.42 5.1,-3.72 5.6,-4.35 1.16,-1.45 1.01,-6.63 0.98,-9.14 -1.51,-1.93 -4.24,-4.77 -5.97,-6.25 0.33,-2.11 1.44,-4.48 2.62,-6.16 9.68,0.03 6.72,2.25 11.36,-2.26 4.94,-4.8 3.18,-1.71 3.36,-11.89l6.08 -2.33c6.89,6.08 1.33,6.3 10.45,6.61 3.7,0.13 3.65,0.56 5.75,-1.66l4.67 -4.28 5.46 2.42c0.39,2.23 -0.14,4.26 -0.22,6.55 -0.13,3.64 0.8,3.45 2.56,5.19 4.36,4.3 2.36,3.55 11.9,3.26zm-51.35 -17.84c-0.19,4.79 1.19,7.81 -1.85,10.8 -2.32,2.28 -6.67,0.23 -10.79,0.72 -1.26,0.66 -3.5,6.4 -4.28,8.15 -0.59,1.32 -0.93,1.94 -1.62,2.77 7.05,10.81 6.94,3.16 6.98,12.66 -2.35,1.55 -4.59,3.69 -6.89,5.39 -0.21,2.86 2.81,11.37 4.76,12.92 4.46,0.89 7.96,-1.48 11.02,1.74 2.67,2.82 0.42,6.3 0.93,11.01 1.66,1.63 9.2,5.38 12.02,5.36 1.36,-0.74 3.79,-3.28 4.67,-4.34 2.52,-3.03 2.02,-2.09 6.92,-2.11 0.55,1.01 4.78,6.6 6.13,6.96 1.38,0.37 7.87,-2.29 9.61,-3.03 0.55,-0.24 0.93,-0.37 1.39,-0.71 3.91,-2.88 -1.35,-7.57 2.99,-12.13 2.59,-2.72 6.69,-0.1 11.45,-1.09 1.16,-1.86 3.08,-5.9 3.91,-8.31 1.65,-3.27 0.98,-4.18 -0.93,-5.92 -1.58,-1.43 -2.79,-2.78 -4.62,-3.76l0.09 -5.47c9.41,-5.48 6.93,-7.47 5.03,-12.63 -0.37,-1.01 -0.66,-1.96 -1.11,-3.02 -2.37,-5.51 -8,-1.83 -10.63,-2.66 -0.1,-0.03 -3.5,-2.4 -3.55,-4.85 -0.06,-2.94 0.97,-5.01 0.19,-8.27 -1.98,-1.54 -9.31,-5.06 -12.47,-4.93 -1.28,1.31 -2.35,2.5 -3.66,3.98 -1.39,1.56 -1.66,2.62 -4.5,2.51 -3.83,-0.15 -3.17,-1.01 -4.96,-3.02 -4.56,-5.13 -2.97,-4.92 -10.75,-1.97 -2.75,1.04 -4.74,1.03 -5.5,3.23zm89.37 -22.09c2.58,1.51 0.85,1.79 4.81,1.86 3.46,0.06 2.92,-0.55 3.73,3.19l-3.84 2.73c-1.33,13.47 4.76,5.79 2.59,12.82l-5.77 -0.02c-1.45,1.73 -2.75,2.55 -3.56,3.52 -1.34,1.61 -0.52,3.62 -0.94,6.19 -6.12,1.55 -2.54,-2.59 -7.85,-3.2 -4.88,-0.56 -4.71,0.3 -6.49,2.04 -1.07,1.04 -0.88,0.88 -1.85,1.51l-2.39 -1c-0.22,-1.88 0.37,-3.8 -0.17,-5.37 -0.64,-1.87 -1.6,-1.04 -2.34,-3.41 -2.35,-1.51 -3.39,-1.05 -6.85,-1.13l-1.21 -2.76c2.25,-1.75 3.93,-2.37 4.12,-6.32 0.27,-5.71 -1.45,-4.24 -3.6,-7.31l1.07 -2.5c5.74,0.15 4.05,1.2 7.52,-1.88 2.73,-2.42 2.29,-0.62 2.32,-7.56l2.59 -0.77c1.77,1.31 2.35,2.21 3.58,3.77 7.44,0.41 6.27,0.42 9.85,-3.52l2.92 1.01c0.02,1.26 -0.28,3.5 -0.16,4.67 0.26,2.36 0.83,1.47 1.93,3.46zm-5.11 36.18c3.7,-2.45 7.11,-0.64 7.09,-5.76 -0.02,-4.52 -0.31,-2.9 0.75,-4.1 2.47,-2.8 5.43,1.6 8.08,-2.38 0.47,-0.7 2.79,-5.99 2.51,-7.06 -1.9,-3.05 -4.18,-2.18 -4.02,-6.98 1.97,-1.19 4.75,-2.11 4.23,-5.34 -0.29,-1.78 -2.08,-6.27 -3.49,-7.17l-6.1 -0.34c-1.91,-2.91 -0.74,-4.1 -1.1,-8.08 -7.02,-2.98 -7.88,-4.81 -10.95,-1.14 -4.67,5.61 -5.29,-1.41 -8.48,-2.41 -2.87,0.05 -7.13,1.8 -8.66,3.4 -0.47,2.79 0.25,4.7 -0.62,6.82 -2.69,1.3 -4.08,0.05 -7.35,0.57 -1.54,2.05 -3.53,5.58 -3.62,8.86 1.73,1.57 2.58,2.52 4.16,3.77 -0.28,5.05 -2.16,3.13 -4.35,6.48 -0.2,2.02 1.37,6.34 2.26,7.76 1.72,2.73 4.91,0.56 7.97,1.92 1.01,2.45 -0.07,3.9 0.41,6.99 1.22,1.33 5.1,3.59 7.43,3.86 3.59,0.42 3.23,-3.81 7.06,-4.04 2.86,1.25 2.44,4.39 6.77,4.38zm-65.48 8.17c14.5,-2.26 17.53,20.52 2.82,22.26 -14.62,1.73 -17.89,-19.91 -2.82,-22.26zm-2.43 -4.36c-20.69,5.19 -12.51,36.33 7.85,30.92 7.11,-1.89 13.74,-9.42 11.53,-18.97 -1.78,-7.71 -9.69,-14.37 -19.38,-11.94zm-40.46 -0.19c3.99,-15.39 17.97,-23.83 18.5,-25.78 0.7,-2.58 -1.5,-2.88 -3.38,-2.82 -0.54,0.76 -1.66,1.53 -2.48,2.14 -6.04,4.54 -13.67,15.09 -16.43,22.68 -2.11,5.82 -3.55,11.2 -3.84,17.83 -0.24,5.56 0.29,15.64 2.79,19.34 6.8,0.87 1.97,-3.72 1.84,-15.65 -0.04,-4.04 1,-15.1 2.99,-17.73zm100.25 -34.97c8.34,-2.38 10.36,10.17 3.34,12 -8.1,2.12 -11.72,-9.61 -3.34,-12zm-6.18 14.49c2.29,0.64 3.69,2.43 7.54,2.47 3,0.03 5.6,-1.07 7.37,-2.74 3.26,-3.09 5.68,-9.29 1.82,-14.32 -1.7,-2.26 -3.4,-4.16 -7.33,-4.72 -3.6,-0.51 -6.84,0.61 -8.91,2.54 -6.1,5.67 -3.82,11.07 -0.48,16.78zm13.78 44.26c7.32,-2.05 9.78,8.74 3.44,10.94 -7.35,2.55 -11.59,-8.67 -3.44,-10.94zm-8.18 10.33c0.6,0.52 2.26,4.81 8.19,5.58 4.51,0.59 7.86,-1.57 9.89,-4.26 2,-2.65 2.61,-7.24 0.81,-10.71 -1.72,-3.33 -3.74,-4.69 -8.11,-5.81 -9.34,0.03 -12.9,5.93 -10.79,15.2zm11.31 -16.49c2.51,-3.44 0.8,-12.37 1.2,-17.46 -1.73,-0.83 -2.64,-1.09 -4.42,-0.32 -0.51,2.9 -0.28,6.81 -0.29,10.07 -0.01,4.46 -1.4,7.71 3.51,7.71zm-29.31 12.19c0.5,1.51 0.68,2.59 2.22,2.99l13.15 -0.34c1.66,-5.2 -2.17,-4.65 -11.64,-4.33 -2.43,0.08 -2.28,0.34 -3.73,1.69zm-69.63 -135.26c-7.26,-6.68 -14.3,-2.01 -3.93,3.09 2.55,1.25 4.16,0.23 3.93,-3.09zm61.58 -14.98c2.28,1.6 3.16,1.57 4.59,-0.9 7.26,-12.55 -6.02,-6.15 -4.59,0.9zm-19.68 -10.34c-0.01,-11.01 -7.95,-1.34 -4.21,3.91 0.17,0.23 4.22,3.86 4.21,-3.91zm36.97 26.57c1.4,4.31 3.83,1.94 6.44,0.47 3.34,-1.89 4.11,-4.85 0.5,-5.13 -2.18,-0.17 -6.18,2.73 -6.93,4.66zm-61.38 -16.27c0.71,-3.54 -4.65,-11.39 -6.73,-6.79 -0.7,1.54 1.18,4.24 1.96,5.6 1.52,2.65 2.42,2.89 4.77,1.19z"/>
 </g>
</svg>
