<?xml version="1.0" encoding="UTF-8"?>
<!DOCTYPE svg PUBLIC "-//W3C//DTD SVG 1.1//EN" "http://www.w3.org/Graphics/SVG/1.1/DTD/svg11.dtd">
<!-- Creator: CorelDRAW 2019 (64-Bit) -->
<svg xmlns="http://www.w3.org/2000/svg" xml:space="preserve" width="18.5374mm" height="25.0362mm" version="1.1" style="shape-rendering:geometricPrecision; text-rendering:geometricPrecision; image-rendering:optimizeQuality; fill-rule:evenodd; clip-rule:evenodd"
viewBox="0 0 135.6 183.14"
 xmlns:xlink="http://www.w3.org/1999/xlink"
 xmlns:xodm="http://www.corel.com/coreldraw/odm/2003">
 <defs>
  <style type="text/css">
   <![CDATA[
    .fil0 {fill:#2B2A29}
   ]]>
  </style>
 </defs>
 <g id="Layer_x0020_1">
  <metadata id="CorelCorpID_0Corel-Layer"/>
  <path class="fil0" d="M6.85 12.34l0.88 5.54 8.32 -1.04c1.01,2.13 1.46,3.34 0.31,5.56l-7.02 1.41 0.66 5.97c14.08,-1.43 14.79,-6.28 15.19,2.58l-13.75 3.15 0.46 4.87c2.95,1.27 5.55,-0.06 9.21,-0.22l0.81 5.18 -8.08 1.87 0.51 5.33 14.76 -2.12 0.79 5.6 -14.09 2.73 1 5.63c3.41,-0.24 6.17,-1.38 8.6,-0.34l0.81 4.1 -8.16 2.15c0.21,3.39 0.71,3.79 3.8,3.99l25.97 -0.26c1.16,-3.06 -10.77,-63.05 -12.22,-66.39 -3.66,-1.43 -23.46,3.56 -28.75,4.7zm111.28 6.5l9.7 3.29 -2.86 -8.05c-2.55,0.88 -5.2,2.51 -6.83,4.76zm-8.29 55.32l5.68 0.13c1.94,-5.36 13.62,-43.06 13.34,-45.33l-4.79 -1.91c-1.5,2.67 -14.28,44.75 -14.23,47.11zm-44.71 -26.79l17.92 0.28 -0.02 -5.81 -17.92 -0.18 0.02 5.71zm55 43.32c4.17,-13.26 -6.58,-10.37 -17.83,-10.45 -10.35,-0.08 -20.69,-0.07 -31.04,-0.08 -8.3,-0.01 -57.32,-1.56 -60.51,1.52 -2.86,2.77 -1.9,8.65 2.08,9.78 2.62,0.75 12.17,0.47 15.45,0.47 10.34,0.01 20.69,0 31.04,0.02 11.89,0.02 52.81,1.37 60.81,-1.27zm-7.68 7.12l-94.38 -0.08c-1.12,19.7 -0.18,42.75 -0.08,62.76 0.08,17.19 -2.19,16.74 15.08,16.85l63.67 0.01c16.99,-0.11 15.73,0.9 15.78,-16.06 0.06,-20.61 0.84,-43.07 -0.06,-63.47zm-47.21 -44.59l18.05 0.08 -0.27 21.22 -18.12 -0.25 0.34 -21.05zm38.14 20.5c-1.29,0.71 1.32,0.19 -1.9,0.82 -2.35,0.46 -3.1,-0.04 -4.47,-0.41l0.57 -1.05 14.85 -49.59 5.73 1.98 -14.79 48.25zm-38.48 -38.05c-0.79,-1.8 -1.76,-6.16 -2.06,-8.49 -0.59,-4.64 8.2,-12.65 11.34,-16.04 10.02,12.51 13.12,11.03 10.14,21.52 -0.96,3.38 0.14,3.62 -7.33,3.09l-0.28 -8.69 -5.44 -0.04 -0.06 8.89 -6.32 -0.23zm-52.25 39.05c-4.81,1.45 -9.37,5.25 -9.15,11.74 0.25,7.21 6.22,9.4 8.7,11.03 -0.22,23.08 0.15,46.26 0.11,69.36 -0.03,15.5 4.92,16.29 19.16,16.27l69.24 0c15.55,0.06 17.52,-4.08 17.5,-17.07 -0.03,-22.89 0.29,-45.86 0.06,-68.74 12.54,-6.45 10.11,-16.25 3.13,-21.05 0.51,-5.12 3.77,-13.4 5.32,-18.68 13.33,-45.44 9.92,-20.84 1.12,-52.54 -4.13,1.69 -12.62,8.12 -16.52,10.88 -4.14,2.93 -3.21,2.5 -5.11,8.42l-9.49 31.1c-1.65,5.2 -4.39,17.85 -7.16,18.83 -2.93,-4.43 -0.25,-37.76 0.98,-44.14 1.68,-8.7 1.3,-6.54 -5.7,-15.32l-10.28 -12.68c-3.4,2.15 -8.23,9.03 -10.91,12.27 -4.71,5.68 -7.93,6.47 -6.02,15.66 2.07,9.95 2.86,33.78 1.45,44.23l-4.39 -0 -14.55 -74.29 -40.14 7.75 12.64 66.98zm17.23 43.7l70.8 0.02 -0.22 26.71 -70.66 0 0.08 -26.73zm-5.87 32.52l78.29 0 4.17 0 0 -38.28 -82.16 0 -0.3 38.28z"/>
 </g>
</svg>
