<?xml version="1.0" encoding="UTF-8"?>
<!DOCTYPE svg PUBLIC "-//W3C//DTD SVG 1.1//EN" "http://www.w3.org/Graphics/SVG/1.1/DTD/svg11.dtd">
<!-- Creator: CorelDRAW X7 -->
<svg xmlns="http://www.w3.org/2000/svg" xml:space="preserve" width="38.0965mm" height="43.9116mm" version="1.1" style="shape-rendering:geometricPrecision; text-rendering:geometricPrecision; image-rendering:optimizeQuality; fill-rule:evenodd; clip-rule:evenodd"
viewBox="0 0 1097 1265"
 xmlns:xlink="http://www.w3.org/1999/xlink">
 <defs>
  <style type="text/css">
   <![CDATA[
    .fil0 {fill:black}
   ]]>
  </style>
 </defs>
 <g id="Layer_x0020_1">
  <metadata id="CorelCorpID_0Corel-Layer"/>
  <path class="fil0" d="M390 277c0,6 0,3 2,11l-49 42c-4,4 -6,7 -10,11l-110 96c-30,29 -68,13 -68,-24 0,-21 19,-34 41,-55l124 -125c5,-5 7,-5 13,-10l111 -111c71,-71 90,-92 186,-62 33,10 139,44 167,44 98,0 100,-44 136,-52 8,8 11,12 19,20 30,31 61,76 83,113 37,66 29,59 1,78l-59 39c-55,37 -95,71 -180,71 -47,0 -69,-17 -100,-38 -90,-60 -197,-11 -234,-11 -31,0 -50,-50 -16,-74 17,-12 169,-35 209,-36 11,0 34,2 46,4 40,7 49,-40 -28,-40 -47,0 -60,1 -107,7 -38,5 -119,17 -147,38 -17,13 -30,37 -30,64zm-275 136c0,60 73,108 132,53l161 -142c11,8 32,34 71,27 70,-12 34,-16 125,-16 60,0 78,34 127,53 52,21 101,15 153,-1 43,-12 81,-41 115,-64 31,-21 98,-57 98,-85 0,-32 -9,-42 -29,-80 -13,-24 -40,-62 -57,-85 -14,-19 -52,-67 -76,-67 -54,0 -54,52 -130,52 -22,0 -88,-22 -112,-29 -80,-25 -141,-50 -215,0 -25,16 -93,93 -122,118 -51,46 -99,97 -147,145 -36,36 -94,76 -94,121zm528 548c-29,-19 -37,-30 -81,-21 -37,8 -58,15 -100,11 -89,-8 -75,-53 -164,-63 -98,-10 -167,43 -241,93 -59,40 -84,42 -16,154 15,26 35,54 54,76 22,26 41,57 80,40 14,-7 25,-18 39,-27 21,-14 37,-14 63,-14 22,0 122,35 150,43 46,13 83,20 131,-3 56,-28 23,-50 12,-50 -15,1 -26,28 -84,28 -32,0 -174,-58 -217,-58 -22,0 -50,8 -65,16 -39,20 -44,44 -60,24 -24,-30 -28,-32 -57,-72 -13,-18 -45,-73 -50,-96 6,-9 15,-13 25,-19 78,-48 168,-131 274,-86 43,19 73,72 204,47 14,-2 32,-10 48,-10 33,0 55,58 4,72 -18,5 -42,9 -59,12 -40,6 -82,13 -128,13 -29,0 -65,-19 -65,16 0,25 69,21 91,21 49,0 106,-12 147,-21 90,-17 75,-61 81,-86 2,-7 76,-68 89,-78 4,-4 6,-7 10,-11l23 -19c5,-4 6,-4 11,-9 25,-24 49,-48 75,-24 42,37 -47,85 -57,107 -5,11 6,25 18,25 15,0 35,-30 53,-45 12,-11 15,-12 25,-26 27,-41 3,-97 -42,-107 -54,-13 -77,29 -119,61 -25,19 -78,71 -102,86zm-112 -148c-56,0 -96,-17 -129,-49 -68,-69 -71,-179 -1,-249 68,-68 180,-67 247,0 52,53 63,129 34,198 -15,34 -49,69 -84,84 -19,8 -40,16 -67,16zm-220 -175c0,87 52,158 125,194 76,37 176,18 236,-42 142,-142 30,-364 -147,-364 -116,0 -214,95 -214,212zm194 -107c-15,1 -26,10 -34,18 -34,35 -20,81 20,102 28,14 66,-4 66,39 0,16 -23,21 -39,21 -30,0 -19,-34 -50,-34 -12,0 -23,15 -4,43 18,27 33,20 41,32 0,0 5,19 22,15 12,-2 12,-13 18,-18 4,-4 16,-7 24,-13 53,-40 19,-111 -36,-116 -18,-2 -25,1 -35,-10 -28,-29 27,-65 54,-31 11,14 3,22 28,22 22,0 19,-48 -26,-67 -19,-8 -8,-10 -18,-19 -13,-10 -30,-5 -31,16zm208 532c0,15 14,30 36,12 37,-28 40,-56 9,-56 -6,0 -45,32 -45,44zm-94 89c0,23 12,21 24,21 7,0 18,-14 23,-19 6,-6 19,-16 19,-25 0,-7 -7,-19 -19,-19 -15,0 -47,37 -47,42z"/>
 </g>
</svg>
