<?xml version="1.0" encoding="UTF-8"?>
<!DOCTYPE svg PUBLIC "-//W3C//DTD SVG 1.1//EN" "http://www.w3.org/Graphics/SVG/1.1/DTD/svg11.dtd">
<!-- Creator: CorelDRAW X7 -->
<svg xmlns="http://www.w3.org/2000/svg" xml:space="preserve" width="48.5721mm" height="46.1435mm" version="1.1" style="shape-rendering:geometricPrecision; text-rendering:geometricPrecision; image-rendering:optimizeQuality; fill-rule:evenodd; clip-rule:evenodd"
viewBox="0 0 20121 19115"
 xmlns:xlink="http://www.w3.org/1999/xlink">
 <defs>
  <style type="text/css">
   <![CDATA[
    .fil0 {fill:black}
   ]]>
  </style>
 </defs>
 <g id="Layer_x0020_1">
  <metadata id="CorelCorpID_0Corel-Layer"/>
  <path class="fil0" d="M3018 17103l3354 0 0 1341 -3354 0 0 -1341zm15426 -4024l1006 0 0 3353 -1006 0 0 -3353zm-1006 4024c-457,0 -335,-820 -335,-1341 0,-696 128,-1342 -335,-1342 -464,0 -336,646 -336,1342 0,280 3,560 3,840 -1,679 -675,679 -676,0l4 -1681c2,-304 -42,-501 -337,-501 -295,0 -339,197 -337,501l4 1681c-1,679 -674,679 -675,0l4 -1681c2,-304 -42,-501 -337,-501 -464,0 -336,646 -336,1342 0,521 123,1341 -335,1341 -165,0 -335,-190 -335,-377l0 -4779c0,-173 571,-1226 684,-1453 738,-1475 657,-1016 657,-2446l3354 0 0 2013c0,235 521,668 765,911 553,554 576,573 576,1436 -1633,0 -1341,-356 -1341,2348l-3 2009c-21,158 -167,338 -333,338zm-15091 -5030c0,-166 191,-336 378,-336l4779 0c180,0 1223,570 1453,685l709 339c256,132 495,318 772,318l1970 0 0 3353 -3018 0c-236,0 -668,522 -912,765 -553,554 -573,577 -1436,577 0,-1634 356,-1342 -2347,-1342l-2010 -2c-406,-55 -549,-670 163,-671l1681 4c304,2 501,-42 501,-337 0,-295 -197,-339 -501,-337l-1681 4c-678,-1 -678,-674 0,-675l1681 4c304,2 501,-42 501,-337 0,-464 -646,-336 -1341,-336 -522,0 -1342,123 -1342,-335 0,-457 820,-335 1342,-335 695,0 1341,128 1341,-336 0,-463 -646,-335 -1341,-335 -280,0 -561,3 -841,2 -269,0 -501,-90 -501,-337zm10061 -294l0 629c-2232,0 -1498,194 -3256,-685 -1267,-633 -1004,-656 -2110,-656l0 -1803c0,-300 1342,-963 1342,-1970l0 -587c2397,0 1437,-185 3255,685 311,149 1198,656 1482,656l628 0c0,1455 -41,869 -563,2036 -49,109 -59,111 -99,194 -180,376 -679,1223 -679,1501zm-10731 -4611l0 -4779c0,-415 672,-628 673,124l-4 1681c-2,304 42,501 337,501 295,0 339,-197 337,-501l-4 -1681c1,-678 674,-678 675,0l-4 1681c-2,304 42,501 337,501 464,0 336,-646 336,-1341 0,-522 -123,-1342 335,-1342 457,0 335,820 335,1342 0,695 -128,1341 336,1341 295,0 339,-197 337,-501l-4 -1681c0,-712 615,-570 670,-163l3 3351c0,1147 -151,1006 1341,1006 0,1066 -144,1004 -995,1855 -127,127 -346,270 -346,493l0 2012 -3354 0c0,-1430 81,-971 -657,-2446 -113,-227 -684,-1280 -684,-1453zm-1006 -4485l335 0 0 3353 -335 0 0 -3353zm15091 1006c0,295 197,339 501,337l1681 -4c678,1 678,675 0,675l-1681 -4c-304,-2 -501,42 -501,337 0,295 197,340 501,337l1681 -4c678,1 678,675 0,676l-1681 -4c-304,-3 -501,42 -501,337 0,295 197,339 501,337l1681 -4c752,1 539,673 123,673l-4779 0c-173,0 -1225,-571 -1453,-685 -283,-141 -1193,-657 -1481,-657l-3312 0 0 -3353 4360 0c236,0 668,-522 912,-765 553,-554 573,-577 1435,-577 0,1634 -355,1342 2348,1342l2010 2c406,55 549,670 -163,671l-1681 -4c-304,-2 -501,42 -501,337zm-1342 -3018l3354 0 0 1341 -3354 0 0 -1341zm-671 -336l0 336c-1249,0 -1182,29 -2106,953 -91,91 -324,388 -451,388l-4108 0c-185,0 -123,-225 -369,-427 -650,-537 -1288,-34 -1349,-34 -165,0 -138,-210 -755,-210 -308,0 -481,210 -587,210 -164,0 -138,-210 -754,-210 -308,0 -482,210 -587,210 -131,0 -1011,-718 -1635,461 -462,0 -1048,-120 -1048,335l0 4025c0,438 502,335 1006,335 0,1269 66,803 666,2101 190,412 675,1213 675,1504 0,1321 -6,571 -427,1082 -537,650 -34,1288 -34,1349 0,165 -209,138 -209,755 0,308 209,481 209,587 0,164 -209,138 -209,754 0,308 209,482 209,587 0,131 -718,1011 461,1635 0,391 1,783 0,1174 0,421 -92,880 336,880l4024 0c399,0 335,-395 335,-671 1250,0 1183,-29 2107,-953 91,-91 324,-388 451,-388l2766 0c186,0 124,225 369,427 650,537 1288,34 1350,34 164,0 138,210 754,210 308,0 482,-210 587,-210 164,0 138,210 755,210 308,0 481,-210 587,-210 130,0 1010,719 1635,-461 335,0 670,-1 1006,0 377,1 712,46 712,-335l0 -4025c0,-219 -129,-318 -335,-335 0,-1296 -107,-1260 -870,-2023 -100,-100 -472,-402 -472,-534l0 -1761c0,-253 671,-124 671,-1131 0,-309 -209,-482 -209,-587 0,-165 209,-138 209,-755 0,-308 -209,-481 -209,-587 0,-164 209,-138 209,-754 0,-308 -209,-482 -209,-587 0,-131 718,-1011 -462,-1635 0,-391 0,-782 0,-1174 0,-421 93,-880 -335,-880l-4024 0c-203,0 -336,133 -336,335zm-4862 9055c0,-217 111,-261 251,-335 377,87 553,670 923,670 369,0 545,-583 922,-670 140,74 251,118 251,335 0,384 -263,501 -490,684 -233,188 -442,370 -683,532 -231,-155 -441,-333 -661,-513 -230,-188 -513,-312 -513,-703zm1174 2012c225,0 1030,-712 1248,-890 403,-329 769,-732 577,-1438 -135,-496 -501,-690 -987,-690 -462,0 -570,323 -838,503 -437,-292 -253,-503 -1048,-503 -606,0 -1161,967 -589,1762 154,213 867,752 1157,981 128,100 287,275 480,275z"/>
 </g>
</svg>
