<?xml version="1.0" encoding="UTF-8"?>
<!DOCTYPE svg PUBLIC "-//W3C//DTD SVG 1.1//EN" "http://www.w3.org/Graphics/SVG/1.1/DTD/svg11.dtd">
<!-- Creator: CorelDRAW X7 -->
<svg xmlns="http://www.w3.org/2000/svg" xml:space="preserve" width="42.638mm" height="42.3014mm" version="1.1" style="shape-rendering:geometricPrecision; text-rendering:geometricPrecision; image-rendering:optimizeQuality; fill-rule:evenodd; clip-rule:evenodd"
viewBox="0 0 55295 54859"
 xmlns:xlink="http://www.w3.org/1999/xlink">
 <defs>
  <style type="text/css">
   <![CDATA[
    .fil0 {fill:black}
   ]]>
  </style>
 </defs>
 <g id="Layer_x0020_1">
  <metadata id="CorelCorpID_0Corel-Layer"/>
  <path class="fil0" d="M6048 51295c-1037,0 -3292,1355 -4428,1620l0 -4860c649,-151 29000,-11928 32554,-13345 4826,-1924 9795,-4101 14610,-6018l3226 -1310c540,-228 1202,-465 1665,-711l0 2484c-489,114 -2277,1139 -2952,1476l-8857 4534c-515,262 -859,487 -1402,758 -548,273 -966,483 -1513,756l-7344 3780c-4346,2166 -8876,4655 -13247,6840l-8767 4522c-625,391 -924,78 -1686,-117 -529,-134 -1217,-409 -1859,-409zm49247 -25380l0 3629c-138,715 -592,933 -1907,1591l-6913 3564c-852,426 -1498,804 -2340,1224 -800,400 -1521,730 -2304,1151 -723,390 -4033,2216 -4571,2341 250,341 1877,881 2299,1049 803,320 1487,599 2299,941l9334 3842c772,307 1485,617 2298,941 682,271 1805,589 1805,1435l0 6048c0,299 -189,678 -351,836 -140,137 -623,352 -836,352 -328,0 -3402,-1316 -3966,-1543 -1108,-446 -771,-416 -1961,-64 -375,111 -1795,527 -2174,527 -530,0 -3139,-1556 -3886,-1945 -264,-138 -496,-247 -793,-395 -534,-266 -1152,-396 -1152,-1116 0,-1277 1339,-719 1978,-359l3278 1690c1171,598 1110,268 2389,-58 339,-86 922,-301 1319,-301 1447,0 3142,1295 4535,1620l0 -4860c-1471,-343 -18020,-7584 -18540,-7505l-5651 2969c429,100 1983,915 2396,1167 1160,706 4375,2291 5778,2971 1303,632 841,1802 -74,1802 -451,0 -6274,-3191 -7164,-3636 -3020,-1510 -2357,-1625 -3527,-1007l-3493 1799c-1630,878 -5785,2838 -7071,3621 -1094,666 -2391,1201 -3551,1849 -512,288 -3170,1694 -3598,1694 -986,0 -2142,-756 -3240,-756 -694,0 -3963,1836 -4752,1836 -627,0 -1188,-546 -1188,-1188l0 -6048c0,-566 367,-786 751,-977l8102 -3346c754,-333 1576,-669 2362,-985l5744 -2357c352,-155 861,-248 1077,-543 -570,-152 -12832,-6581 -13933,-7127 -418,-207 -676,-395 -1114,-614 -2165,-1082 -2819,-1219 -2989,-2119l0 -3640c0,-543 537,-1080 1080,-1080 592,0 2284,721 2808,972 0,-1267 -195,-1964 564,-2568 681,-541 1573,-163 2244,192 0,-780 -274,-2338 347,-2893 121,-109 546,-347 733,-347 493,0 1542,739 4984,340 710,-83 1049,65 1604,92 1053,51 2592,-122 2592,972 0,871 -653,883 -1324,789 -1561,-218 -3233,-24 -4723,-31 -1363,-7 -1360,-124 -2485,-218l0 1944 2314 926c811,324 1553,599 2330,910 1517,608 3017,1185 4567,1805 1741,697 7905,2998 9149,3595l0 -972c-365,-193 -372,-245 -711,-477 -2593,-1778 -5593,-3028 -8638,-3890 -645,-182 -3179,-617 -3179,-1357 0,-488 257,-972 756,-972 1842,0 7371,2283 9144,3168l2628 1476c0,-818 -20,-845 -456,-1272 -1588,-1553 -3144,-2603 -5307,-3333 -487,-164 -811,-263 -1302,-426 -1249,-416 -982,-1819 103,-1704 1709,182 5715,2296 6935,3522l606 582c16,15 38,40 53,55 136,133 76,96 232,200l3067 -2440c2369,-1431 5523,-2344 8303,-2713 809,-108 1762,-116 2483,-218 567,-79 909,-4 1296,50 898,123 1872,29 2779,29 858,0 1374,-432 1943,-432 542,0 1003,574 1072,1089 70,531 9,1567 9,2151 670,-355 1562,-733 2243,-192 760,604 564,1301 564,2568 446,-214 2182,-972 2701,-972 582,0 1187,452 1187,1080zm-53675 756c436,231 945,389 1441,611l20746 8522c458,183 1109,549 1573,587 -277,377 -3997,1727 -4599,1992 -863,379 -644,248 -1521,-192 -1043,-523 -1879,-993 -2916,-1512l-11700 -6012c-675,-337 -2463,-1381 -3024,-1512l0 -2484zm3996 -1836c502,117 853,309 1341,495 536,203 886,331 1405,539 961,384 1735,690 2716,1064 950,361 1754,700 2699,1081 1424,573 13259,5353 13979,5353 333,0 15285,-5976 16383,-6404 963,-376 1784,-690 2717,-1063 454,-182 894,-353 1403,-541 450,-166 903,-403 1420,-524l0 1728 -16493 6727c-510,202 -851,363 -1373,571 -511,204 -893,342 -1388,556 -363,157 -2574,1110 -2777,1110 -256,0 -4785,-1937 -5461,-2207 -2668,-1063 -8306,-3306 -11026,-4526 -911,-408 -1872,-785 -2753,-1135 -692,-277 -2162,-949 -2792,-1096l0 -1728zm22896 3456c0,-1103 214,-996 756,-1619 292,-335 907,-826 1295,-1081 3603,-2371 7713,-3409 12317,-3352 802,10 1363,209 2691,107 422,-32 884,-176 1300,-211l0 1944 -9133 3610c-1565,626 -3028,1187 -4567,1806 -755,304 -1523,587 -2330,910l-2329 910 0 -972c340,-180 363,-229 647,-432 2625,-1874 7222,-3631 10390,-4406 766,-188 1491,-283 1491,-994 0,-1600 -2620,-514 -4039,-42 -1088,362 -1995,663 -3028,1076 -1038,415 -1871,790 -2833,1270l-2628 1476zm3456 -17172c0,-1600 2916,-1793 2916,756 -526,123 -2916,789 -2916,-756zm-1728 0c0,730 475,1561 892,1916 1250,1067 2424,769 3536,676 -725,1083 -1430,1513 -3017,1736 -1791,253 -2488,-349 -3679,-980 0,-1106 -150,-1774 -333,-2691 -242,-1206 -134,-1953 -1287,-1953 -1145,0 -371,2316 -261,2853 273,1335 484,3327 -705,4173 -944,672 -3328,959 -4143,243 -1534,-1346 249,-2279 249,-2841 0,-684 -719,-1242 -1535,-563 -859,715 -949,1650 -949,2615 0,944 676,1668 1217,2131 1392,1190 4081,880 5698,32 681,-356 1648,-1245 1725,-2163 1188,277 834,864 3780,864 2538,0 5184,-2181 5184,-4320 0,-1279 -11,-2435 -945,-3483 -265,-298 -571,-590 -932,-796 -1142,-649 -2584,-308 -3544,478 -424,348 -951,1317 -951,2073zm-15228 -2916l0 9072c0,1220 1728,1220 1728,0l0 -9072c0,-1299 -1728,-1299 -1728,0zm25056 -324l0 9504c0,1113 1620,1075 1620,0l0 -9288c0,-1242 -1620,-948 -1620,-216zm-25380 -3456c-1753,409 -1038,1836 -324,1836 438,0 1708,-692 2124,-900 804,-402 1656,-556 1656,-1476 0,-230 -284,-521 -484,-596 -494,-186 -2324,247 -2324,-1024 0,-259 175,-317 324,-539 783,0 1512,-6 1512,-757 0,-2030 -4520,-669 -3351,2271 269,676 538,694 867,1185zm15876 1728c0,1472 2268,1397 2268,108 0,-1654 -2268,-1456 -2268,-108zm-3996 33372c0,1615 2160,1615 2160,0 0,-1305 -2160,-1305 -2160,0zm7344 -33372c0,1405 2160,1564 2160,-108 0,-1326 -2160,-1302 -2160,108z"/>
 </g>
</svg>
