<?xml version="1.0" encoding="UTF-8"?>
<!DOCTYPE svg PUBLIC "-//W3C//DTD SVG 1.1//EN" "http://www.w3.org/Graphics/SVG/1.1/DTD/svg11.dtd">
<!-- Creator: CorelDRAW X7 -->
<svg xmlns="http://www.w3.org/2000/svg" xml:space="preserve" width="25.3774mm" height="25.3774mm" version="1.1" style="shape-rendering:geometricPrecision; text-rendering:geometricPrecision; image-rendering:optimizeQuality; fill-rule:evenodd; clip-rule:evenodd"
viewBox="0 0 1787 1787"
 xmlns:xlink="http://www.w3.org/1999/xlink">
 <defs>
  <style type="text/css">
   <![CDATA[
    .fil1 {fill:#2E4764}
    .fil0 {fill:white}
   ]]>
  </style>
 </defs>
 <g id="Layer_x0020_1">
  <metadata id="CorelCorpID_0Corel-Layer"/>
  <circle class="fil0" cx="893" cy="893" r="893"/>
  <g id="_2166804917920">
   <path class="fil1" d="M1462 426c-2,12 -24,56 -31,72 -149,358 -395,227 -459,292 -13,14 -19,48 -4,63 19,18 101,25 134,24 71,-2 56,36 51,95 -6,75 -15,74 -33,123 -15,42 49,83 -63,158 -17,11 -34,20 -48,32 35,29 111,46 165,46 51,-1 99,-16 140,-43 13,-7 25,-17 35,-29 20,-25 34,-40 48,-72 48,-109 0,-253 13,-377 6,-51 21,-63 42,-98 39,-65 127,-313 27,-297 -8,4 -11,7 -17,11z"/>
   <path class="fil1" d="M478 568c7,9 17,22 24,29 17,18 27,33 47,48l38 35c11,8 15,14 25,23 10,9 14,10 23,21 43,52 25,78 19,143 32,-2 51,-69 94,-80 30,-8 56,20 60,45 4,21 -1,25 -1,26 -1,1 -2,4 -2,3 0,0 -1,2 -1,3 3,42 -90,153 -116,172 -27,20 -30,20 -31,65 27,-13 31,-32 81,6 14,11 58,43 75,45 -3,-15 -34,-71 9,-122 43,-49 101,-34 122,-40 5,-44 -14,-203 20,-224 14,-8 172,-15 217,-37l-1 -6c-69,-42 -203,-55 -295,-72 -51,-10 -98,-21 -146,-39 -63,-24 -97,-51 -146,-90l-79 -78c-11,-10 -29,-15 -44,-11 -64,15 -14,104 8,135z"/>
   <path class="fil1" d="M597 1366c13,-9 2,5 12,-12 -4,-23 9,-192 11,-241 2,-46 -3,-40 26,-62 50,-38 129,-132 146,-196 3,-28 -13,-58 -46,-47 -12,4 -19,14 -26,23 -12,16 -35,43 -48,57 -11,12 -18,18 -28,28 -58,58 -133,70 -204,28 -7,-4 -12,-8 -17,-12 -34,-32 -54,-57 -76,-100 -15,-26 -26,-56 -47,-76 -49,5 -40,43 -33,83 9,55 25,93 54,135 46,64 72,63 72,110 -3,147 -18,104 63,181 22,22 44,37 69,55 13,9 68,40 72,46z"/>
   <path class="fil1" d="M732 1222c26,30 50,13 53,59 3,40 -8,115 3,146 32,11 147,19 183,8 1,-16 1,-152 6,-150 11,-31 123,-53 133,-117 12,-75 -102,40 -237,24 -43,-4 -76,-22 -102,-42 -134,-104 -109,-10 -39,72z"/>
   <path class="fil1" d="M934 590c49,-32 51,-91 42,-127 -20,-85 -136,-107 -195,-21 -64,95 32,204 153,148z"/>
   <path class="fil1" d="M1180 482c-129,39 -73,226 54,192 46,-12 86,-65 69,-124 -13,-45 -62,-87 -123,-68z"/>
   <path class="fil1" d="M1146 690l7 0c-11,-43 -12,0 -45,-61 -33,-60 -7,-147 91,-162 26,-4 33,-32 47,-53 6,-17 11,-25 -5,-35 -33,-30 -56,89 -142,82 -81,-6 -91,-104 -121,-115 -26,12 -14,50 -7,74 30,90 64,38 61,138 0,32 -3,66 1,97 24,10 98,23 113,35z"/>
   <path class="fil1" d="M474 794c-30,31 -31,87 -2,122 61,74 172,-17 136,-96 -17,-43 -92,-68 -134,-26z"/>
   <path class="fil1" d="M873 1021c-6,4 -12,7 -17,10 -16,13 -18,16 -25,36 -10,30 1,65 20,80 64,55 161,-10 122,-94 -14,-32 -59,-46 -100,-32z"/>
   <path class="fil1" d="M762 602c5,-10 4,-22 2,-35 -12,-39 -22,-41 -14,-94 -40,5 -67,2 -97,-15 -17,-10 -79,-71 -74,-16 4,44 60,53 67,82l5 24c21,17 78,50 111,54z"/>
   <path class="fil1" d="M767 432c13,-25 2,-51 -15,-62 -19,-12 -47,-9 -62,5 -54,52 45,122 77,57z"/>
   <path class="fil1" d="M1098 356c-62,17 -31,110 26,88 17,-7 34,-33 29,-57 -4,-20 -32,-37 -55,-31z"/>
  </g>
 </g>
</svg>
