<?xml version="1.0" encoding="UTF-8"?>
<!DOCTYPE svg PUBLIC "-//W3C//DTD SVG 1.1//EN" "http://www.w3.org/Graphics/SVG/1.1/DTD/svg11.dtd">
<!-- Creator: CorelDRAW 2019 (64-Bit) -->
<svg xmlns="http://www.w3.org/2000/svg" xml:space="preserve" width="24.646mm" height="21.3338mm" version="1.1" style="shape-rendering:geometricPrecision; text-rendering:geometricPrecision; image-rendering:optimizeQuality; fill-rule:evenodd; clip-rule:evenodd"
viewBox="0 0 206.14 178.43"
 xmlns:xlink="http://www.w3.org/1999/xlink"
 xmlns:xodm="http://www.corel.com/coreldraw/odm/2003">
 <defs>
  <style type="text/css">
   <![CDATA[
    .fil0 {fill:#FEFEFE;fill-rule:nonzero}
   ]]>
  </style>
 </defs>
 <g id="Layer_x0020_1">
  <metadata id="CorelCorpID_0Corel-Layer"/>
  <g id="_2343350921168">
   <path class="fil0" d="M148.71 22.82c-32.37,-18.1 -71.88,-10.34 -95.15,16.6 -23.24,26.89 -24.69,65.94 -4.26,94.19 11.32,15.66 26.47,25.78 45.36,29.98 18.84,4.19 36.78,1.41 53.73,-7.73 -27.66,25.8 -78.05,33.31 -115.94,2.01 -40.25,-33.26 -43.17,-92.73 -8.08,-129.8 35.62,-37.62 91.43,-35.47 124.34,-5.26z"/>
   <path class="fil0" d="M206.14 89.27c-1.54,0.5 -2.99,0.97 -4.43,1.44 -8.09,2.63 -16.19,5.27 -24.3,7.88 -0.48,0.16 -0.48,0.45 -0.48,0.82 0.01,9.74 0.01,19.48 0.01,29.21 0,0.22 0,0.44 0,0.82 -0.22,-0.29 -0.35,-0.44 -0.46,-0.61 -5.71,-7.86 -11.43,-15.71 -17.13,-23.58 -0.34,-0.48 -0.61,-0.6 -1.2,-0.41 -9.31,3.05 -18.62,6.07 -27.94,9.1 -0.14,0.05 -0.28,0.08 -0.56,0.15 0.2,-0.28 0.33,-0.45 0.45,-0.63 5.74,-7.89 11.46,-15.78 17.21,-23.66 0.33,-0.45 0.29,-0.71 -0.02,-1.13 -5.77,-7.91 -11.52,-15.83 -17.28,-23.75 -0.09,-0.14 -0.18,-0.28 -0.36,-0.53 1.43,0.46 2.75,0.88 4.06,1.31 8.2,2.67 16.41,5.33 24.61,8.01 0.44,0.14 0.65,0.05 0.89,-0.3 5.69,-7.85 11.39,-15.69 17.1,-23.54 0.16,-0.23 0.33,-0.46 0.62,-0.84 0,0.37 0,0.58 0,0.79 0,9.72 0,19.44 -0.02,29.16 0,0.62 0.21,0.84 0.76,1.02 9.41,3.04 18.83,6.1 28.23,9.15 0.03,0.01 0.06,0.03 0.23,0.12z"/>
   <path class="fil0" d="M176.94 129.44c-0.22,-0.29 -0.35,-0.44 -0.46,-0.61 -5.71,-7.86 -11.43,-15.71 -17.13,-23.58 -0.25,-0.33 -0.44,-0.5 -0.74,-0.5l0 0c0.3,0 0.49,0.16 0.74,0.5 5.69,7.87 11.41,15.72 17.13,23.58 0.11,0.16 0.25,0.32 0.46,0.61 0,-0.38 0,-0.59 0,-0.82 0,-3.65 0,-7.3 0,-10.95 0,3.65 0,7.3 0,10.95 0,0.22 0,0.44 0,0.82zm-18.79 -24.6l0 0c0.03,-0.01 0.05,-0.02 0.08,-0.02 -0.03,0.01 -0.05,0.01 -0.08,0.02z"/>
   <path class="fil0" d="M176.94 129.44c-0.22,-0.29 -0.35,-0.44 -0.46,-0.61 -5.71,-7.86 -11.43,-15.71 -17.13,-23.58 -0.25,-0.33 -0.44,-0.5 -0.74,-0.5l0 0c-0.11,0 -0.25,0.02 -0.38,0.06 -0.03,0.01 -0.05,0.01 -0.08,0.02l18.79 -55.02c0,3.34 0,6.68 0,10.02 0,6.38 0,12.76 -0.02,19.13 0,0.01 0,0.01 0,0.02 0,0.61 0.21,0.82 0.76,1 9.41,3.04 18.83,6.1 28.23,9.15 0.03,0.01 0.06,0.03 0.23,0.12 -1.54,0.5 -2.99,0.97 -4.43,1.44 -8.09,2.63 -16.19,5.27 -24.3,7.88 -0.46,0.15 -0.48,0.42 -0.48,0.76 0,0.02 0,0.04 0,0.06 0.01,6.09 0.01,12.17 0.01,18.26 0,3.65 0,7.3 0,10.95 0,0.22 0,0.44 0,0.82z"/>
   <path class="fil0" d="M111.62 165.51l-0.01 0 0.01 0 0 0zm0.01 0c12.47,-0 24.52,-3.17 36.1,-9.29 -11.59,6.13 -23.63,9.29 -36.1,9.29zm-16.46 -1.8c-0.18,-0.04 -0.34,-0.07 -0.51,-0.11 0.17,0.04 0.33,0.08 0.51,0.11zm51.66 -6.42c0,-0 0.01,-0.01 0.01,-0.01 0,0 -0.01,0.01 -0.01,0.01zm0.19 -0.17c0.01,-0 0.01,-0.01 0.01,-0.01 0,0 0,0.01 -0.01,0.01zm0.07 -0.06c0.01,-0.01 0.02,-0.01 0.03,-0.02 -0.01,0.01 -0.02,0.01 -0.03,0.02zm0.13 -0.11c0,-0 0.01,-0.01 0.01,-0.01 0,0 -0.01,0.01 -0.01,0.01zm0.06 -0.05c0.01,-0.01 0.02,-0.02 0.02,-0.03 0,0.01 -0.01,0.02 -0.02,0.03zm0.07 -0.07c0.02,-0.01 0.03,-0.03 0.05,-0.04 -0.02,0.01 -0.03,0.02 -0.05,0.04zm0.1 -0.09c0.01,-0.01 0.03,-0.03 0.05,-0.04 -0.02,0.01 -0.04,0.03 -0.05,0.04zm0.09 -0.08c0.02,-0.01 0.03,-0.03 0.05,-0.04 -0.02,0.01 -0.03,0.03 -0.05,0.04zm0.08 -0.07c0.02,-0.02 0.04,-0.03 0.06,-0.05 -0.02,0.02 -0.04,0.03 -0.06,0.05zm0.11 -0.09c0,-0.01 0.02,-0.03 0.04,-0.04 -0.02,0.01 -0.04,0.03 -0.04,0.04zm0.07 -0.07c0.02,-0.02 0.04,-0.03 0.06,-0.05 -0.02,0.02 -0.04,0.04 -0.06,0.05zm0.08 -0.07c0.03,-0.02 0.06,-0.05 0.09,-0.07 -0.03,0.02 -0.06,0.05 -0.09,0.07zm0.1 -0.09c0.02,-0.02 0.04,-0.04 0.06,-0.05 -0.02,0.02 -0.04,0.04 -0.06,0.05zm0.09 -0.08c0.03,-0.02 0.05,-0.04 0.07,-0.06 -0.02,0.02 -0.04,0.04 -0.07,0.06zm0.09 -0.07c0.01,-0.02 0.04,-0.05 0.07,-0.07 -0.03,0.03 -0.06,0.05 -0.07,0.07zm0.09 -0.09c0.03,-0.02 0.05,-0.04 0.07,-0.06 -0.02,0.02 -0.05,0.04 -0.07,0.06zm0 -0.06c0.06,-0.03 0.11,-0.06 0.17,-0.09 -0.06,0.03 -0.11,0.06 -0.17,0.09zm0.09 -0.02c0.03,-0.02 0.06,-0.05 0.09,-0.07l0 0c-0.03,0.03 -0.06,0.05 -0.09,0.07zm-94.59 -116.7c0.05,-0.05 0.1,-0.1 0.14,-0.16 -0.05,0.05 -0.1,0.1 -0.14,0.16zm0.23 -0.25c14.7,-16.76 35.73,-25.97 57.35,-25.97 -21.61,0 -42.65,9.21 -57.35,25.97zm94.65 -16.27c-0.01,-0.01 -0.02,-0.02 -0.03,-0.03 0.01,0.01 0.02,0.02 0.03,0.03zm-0.11 -0.11c-0.01,-0.01 -0.02,-0.02 -0.03,-0.03 0.01,0.01 0.02,0.02 0.03,0.03zm-0.14 -0.13c-0.01,-0.01 -0.01,-0.01 -0.02,-0.02 0,0.01 0.01,0.01 0.02,0.02zm-0.12 -0.11c-0.01,-0.01 -0.02,-0.02 -0.03,-0.03 0.01,0.01 0.02,0.02 0.03,0.03zm-0.12 -0.11c-0.01,-0.01 -0.02,-0.01 -0.02,-0.02 0.01,0.01 0.01,0.01 0.02,0.02zm-0.14 -0.13c-0.01,-0 -0.01,-0.01 -0.01,-0.01 0,0 0,0.01 0.01,0.01zm-0.12 -0.11c-0.01,-0.01 -0.02,-0.01 -0.03,-0.02 0.01,0.01 0.02,0.01 0.03,0.02zm-0.27 -0.24c-0.01,-0 -0.01,-0 -0.01,-0 0,0 0.01,0 0.01,0zm-0.13 -0.11c0,-0 -0.01,-0 -0.01,-0.01 0,0 0.01,0 0.01,0.01zm-36.11 -8.65l0 0 0 0 0 0z"/>
   <path class="fil0" d="M107.08 176.62c-50.37,-4.21 -89.76,-41.55 -89.76,-86.99 0,-46.29 40.89,-84.17 92.59,-87.19 13.84,3.28 26.82,9.81 37.5,19.22 0,0 0.01,0 0.01,0.01 0.04,0.04 0.09,0.07 0.12,0.11 0,0 0,0 0.01,0 0.09,0.07 0.16,0.15 0.24,0.22 0.01,0.01 0.02,0.01 0.03,0.02 0.04,0.03 0.08,0.06 0.11,0.1 0,0 0,0.01 0.01,0.01 0.04,0.04 0.08,0.07 0.12,0.11 0,0.01 0.01,0.01 0.02,0.02 0.04,0.03 0.06,0.06 0.09,0.09 0.01,0.01 0.02,0.02 0.03,0.03 0.04,0.03 0.07,0.06 0.1,0.09 0.01,0.01 0.01,0.01 0.02,0.02 0.04,0.04 0.08,0.07 0.11,0.1 0.01,0.01 0.02,0.02 0.03,0.03 0.04,0.03 0.07,0.05 0.09,0.08 0.01,0.01 0.02,0.02 0.03,0.03 0.05,0.04 0.09,0.07 0.12,0.11 -11.9,-6.65 -24.74,-9.81 -37.4,-9.81l0 0 0 0c-0.01,0 -0.01,0 -0.02,0 -21.61,0 -42.65,9.21 -57.35,25.97 -0.03,0.03 -0.06,0.06 -0.09,0.1 -0.05,0.05 -0.1,0.1 -0.14,0.16 -0.06,0.06 -0.09,0.12 -0.15,0.18l0 0c-12.37,14.31 -18.56,32.07 -18.57,49.81 -0.01,15.59 4.74,31.17 14.31,44.38 11.32,15.66 26.47,25.78 45.36,29.98l0 0c0.17,0.04 0.33,0.08 0.51,0.11 5.56,1.2 11.05,1.8 16.44,1.8l0.01 0 0 0 0.01 0c12.48,-0 24.52,-3.17 36.1,-9.29 0.16,-0.09 0.32,-0.17 0.48,-0.26 0.06,-0.03 0.11,-0.06 0.17,-0.09l0 0c-0.03,0.03 -0.06,0.05 -0.09,0.07 0,0.01 -0.01,0.02 -0.02,0.02 -0.02,0.02 -0.04,0.04 -0.07,0.06 0,0.01 -0.01,0.01 -0.02,0.02 -0.03,0.02 -0.06,0.05 -0.07,0.07 -0.01,0 -0.01,0.01 -0.02,0.01 -0.02,0.02 -0.04,0.04 -0.07,0.06 -0.01,0.01 -0.02,0.02 -0.03,0.03 -0.02,0.02 -0.04,0.04 -0.06,0.05 -0.01,0.01 -0.01,0.01 -0.02,0.02 -0.03,0.02 -0.06,0.05 -0.09,0.07 0,0.01 -0.01,0.01 -0.02,0.02 -0.02,0.02 -0.04,0.04 -0.06,0.05 -0.01,0.01 -0.02,0.02 -0.03,0.03 -0.02,0.01 -0.04,0.03 -0.04,0.04 -0.02,0.02 -0.04,0.03 -0.06,0.05 -0.02,0.02 -0.04,0.03 -0.06,0.05 -0.01,0.01 -0.02,0.02 -0.03,0.03 -0.02,0.01 -0.03,0.03 -0.05,0.04 -0.01,0.01 -0.03,0.02 -0.04,0.04 -0.02,0.01 -0.04,0.03 -0.05,0.04 -0.02,0.02 -0.04,0.03 -0.06,0.05 -0.02,0.01 -0.03,0.02 -0.05,0.04 -0.01,0.01 -0.03,0.03 -0.05,0.04 0,0.01 -0.01,0.02 -0.02,0.03 -0.02,0.01 -0.03,0.03 -0.05,0.04 0,0 -0.01,0.01 -0.01,0.01 -0.04,0.03 -0.08,0.06 -0.1,0.09 -0.01,0.01 -0.02,0.01 -0.03,0.02 -0.02,0.02 -0.04,0.03 -0.06,0.05 0,0 0,0.01 -0.01,0.01 -0.06,0.05 -0.12,0.11 -0.18,0.16 0,0 -0.01,0.01 -0.01,0.01 -10.74,9.46 -24.61,16.27 -39.74,19.33z"/>
  </g>
 </g>
</svg>
