<?xml version="1.0" encoding="UTF-8"?>
<!DOCTYPE svg PUBLIC "-//W3C//DTD SVG 1.1//EN" "http://www.w3.org/Graphics/SVG/1.1/DTD/svg11.dtd">
<!-- Creator: CorelDRAW 2019 (64-Bit) -->
<svg xmlns="http://www.w3.org/2000/svg" xml:space="preserve" width="25.0364mm" height="19.6402mm" version="1.1" style="shape-rendering:geometricPrecision; text-rendering:geometricPrecision; image-rendering:optimizeQuality; fill-rule:evenodd; clip-rule:evenodd"
viewBox="0 0 253.86 199.14"
 xmlns:xlink="http://www.w3.org/1999/xlink"
 xmlns:xodm="http://www.corel.com/coreldraw/odm/2003">
 <defs>
  <style type="text/css">
   <![CDATA[
    .fil0 {fill:#2B2A29}
   ]]>
  </style>
 </defs>
 <g id="Layer_x0020_1">
  <metadata id="CorelCorpID_0Corel-Layer"/>
  <path class="fil0" d="M54.82 142.36l0.09 -4.82c21.21,0.42 40.36,17.73 45.61,36.31 2.8,9.92 1.65,15.05 2.46,25.29l6.46 -0.08c3.4,-20.81 -5.68,-38.76 -14.95,-49.85 -8.99,-10.76 -33.82,-22.35 -45.83,-17.98 -0.84,2.55 -0.64,6.08 -0.97,9.27 -4.27,-2.75 -36.74,-25.6 -37.94,-27.33 3.53,-3.51 36.85,-26.64 38.13,-27.1l0.36 9.24c5.25,1.44 15.43,1.35 22.24,2.77 21.02,4.4 41.63,17.34 53.52,33.3 6.44,8.63 9.27,13.15 13.59,23.69 7.02,17.13 4.95,25.44 6.52,43.74l6.55 0.27c3.77,-25.7 -8.28,-58.53 -25.58,-76.8 -13.58,-14.34 -26.91,-23.57 -47.32,-29.31 -7.65,-2.15 -16.32,-2.06 -22.4,-3.74 -2.55,-6.08 3.59,-19.82 -9.57,-10.46 -5.25,3.73 -9.8,7.06 -15.33,10.94 -37.19,26.08 -36.64,21.45 -18.06,34.33 3.87,2.68 36.39,26.49 38.17,26.81 5.14,0.92 4.24,-5.03 4.24,-8.5zm150.98 -56.38l38.15 27.19 -37.91 27.37c-0.6,-4.3 0.82,-6.89 -1.79,-9.23 -6.81,-4.41 -27.52,4.89 -32.48,7.77 -4.88,2.83 -7.55,5.56 -11.34,9.08 -3.33,3.09 -5.77,6.92 -8.47,11.49l5.58 3.04c3,-2.47 4.17,-8.54 16.61,-16.87 5.93,-3.97 15.78,-8.73 24.75,-8.45 0,4.16 -0.34,9.07 0.67,12.56 4.18,1.35 5.73,-0.33 8.45,-2.35l33.56 -24.06c13.22,-9.74 16.36,-9.1 6.58,-16.33 -2.6,-1.92 -4.07,-3 -6.81,-4.86l-27.27 -19.43c-2.54,-1.79 -4.36,-3.09 -6.79,-4.89 -10.14,-7.49 -8.32,3.73 -8.41,10.9 -13.32,2.7 -22.41,1.47 -38.06,9.26 -7.36,3.67 -23.96,13.25 -27.78,19.42l4.58 4.81c34.79,-30.65 54.46,-22.91 67.84,-27.19l0.37 -9.24zm-61.32 -35.52l-0.02 45.12 5.86 -0.06c0.03,-6.76 0.03,-13.52 0.05,-20.28l-0.03 -18.26c0.45,-2.91 -0.19,-0.93 0.93,-2 8.24,-0.33 18.11,1.44 10.08,-9.11l-24.29 -34.08c-1.91,-2.74 -2.96,-4.17 -4.87,-6.81 -6.46,-8.95 -7.11,-5.59 -16.5,7.98 -3.26,4.71 -6.45,9.11 -9.74,13.61 -3.26,4.46 -6.36,8.93 -9.39,13.23 -3.93,5.58 -9.79,11.15 -6.16,14.26 3.05,1.67 8.45,0.8 12.27,0.88l0.08 41.12 6.88 -0.01c-0.04,-8.61 1,-42.03 -0.8,-47.27 -2.57,-0.86 -6.08,-0.66 -9.29,-0.93 1.12,-2.45 4.52,-6.67 6.23,-9.05 3.54,-4.91 19.39,-27.8 21.11,-28.98l13.74 18.84c4.43,6.46 9.47,13.14 13.52,19.1 -4.82,0.71 -8.68,-1.29 -9.66,2.68z"/>
 </g>
</svg>
