<?xml version="1.0" encoding="UTF-8"?>
<!DOCTYPE svg PUBLIC "-//W3C//DTD SVG 1.1//EN" "http://www.w3.org/Graphics/SVG/1.1/DTD/svg11.dtd">
<!-- Creator: CorelDRAW 2019 (64-Bit) -->
<svg xmlns="http://www.w3.org/2000/svg" xml:space="preserve" width="18.7238mm" height="24.8514mm" version="1.1" style="shape-rendering:geometricPrecision; text-rendering:geometricPrecision; image-rendering:optimizeQuality; fill-rule:evenodd; clip-rule:evenodd"
viewBox="0 0 120.6 160.07"
 xmlns:xlink="http://www.w3.org/1999/xlink"
 xmlns:xodm="http://www.corel.com/coreldraw/odm/2003">
 <defs>
  <style type="text/css">
   <![CDATA[
    .fil0 {fill:#FEFEFE}
   ]]>
  </style>
 </defs>
 <g id="Layer_x0020_1">
  <metadata id="CorelCorpID_0Corel-Layer"/>
  <path class="fil0" d="M14.85 126.9l0.33 0.24c0.06,0.06 1.25,1.04 1.71,2.43 0.65,0.26 2.26,2.48 2.97,3.19 0.46,0.46 2.75,2.84 2.95,3.49 0.62,0.33 3.38,2.86 4.07,3.52 0.83,0.79 1.29,1.14 1.98,1.77 0.96,0.88 1.39,0.93 2.1,1.99 0.92,0.19 0.78,0.38 2.05,1.37 7.88,6.12 16.88,9.98 25.8,14.53 1.9,0.97 1.16,0.92 4.82,-0.93 9.6,-4.84 14.53,-6.62 23.52,-13.3 3,-2.23 5.44,-4.44 8.06,-6.72l6.25 -6.53c0.51,-0.65 0.24,-0.75 0.91,-0.83l3.37 -4.25c0.16,-0.89 -0.13,0.11 0.17,-0.5l5.56 -8.95c1.87,-3.38 3.39,-6.96 4.75,-10.77 2.9,-8.16 4.39,-16.98 4.38,-26.36 -0.01,-3.94 -0.08,-58.51 -0.5,-61.11 -1.43,-0.72 -41.28,-13.33 -44.83,-14.47 -2.14,-0.69 -13.81,-4.72 -14.97,-4.72 -0.93,-0 -46.36,14.79 -52.31,16.71 -1.86,0.6 -5.92,1.66 -7.5,2.47 -0.43,2.71 -0.49,57.03 -0.49,61.11 -0.02,9.27 1.47,18.37 4.38,26.37 1.95,5.37 4.47,10.89 7.51,15.54l2.97 4.69zm22.8 -54.51l11.22 16.22c0.26,0.4 0.45,0.61 0.71,0.99 0.25,0.37 0.43,0.67 0.68,1.02 0.26,0.36 0.44,0.61 0.7,1 0.89,1.34 0.69,0.4 0.43,2.52 -0.3,2.47 -2.09,15.9 -2.09,16.98l22.46 0 0.12 -2.55c-0,-1.03 0.13,-1.54 0.12,-2.55l0.36 -10.32c-0,-2.14 -0.08,-1.52 1.66,-3.68 0.82,-1.02 1.55,-1.94 2.39,-2.95 0.4,-0.49 0.26,-0.2 0.39,-0.94l1.58 -7.77c0.18,-0.78 0.3,-1.4 0.46,-2.21 0.14,-0.68 0.42,-1.73 0.44,-2.36l-4.82 4.16c-0.69,0.58 -1.38,1.35 -2.22,1.91 -1.04,-0.7 -3.7,-3.66 -4.8,-4.55 -0.48,-0.39 -0.24,-0.35 -0.95,-0.51 -1.53,-0.33 -2.88,-0.59 -4.4,-0.94 -0.79,-0.18 -1.45,-0.28 -2.21,-0.46 -0.56,-0.13 -1.73,-0.41 -2.33,-0.46 0.1,0.37 0.33,0.55 0.7,1 0.28,0.34 0.51,0.6 0.77,0.93 0.91,1.12 4.03,4.63 4.46,5.86l1.91 5.01c0.3,0.83 0.59,1.66 0.94,2.46 0.29,0.65 1.37,1.37 1.53,1.99 -0.82,0.19 -1.61,0.9 -2.43,1.09 0,4.05 0.12,7.71 0.12,11.78l-0.12 0c0,-0.95 -0.94,-6.97 -1.1,-8.13 -0.18,-1.32 -0.41,-2.74 -0.58,-4.04 -0.16,-1.21 0.07,-1.11 -1.06,-1.25 -0.75,-0.09 -1.5,-0.18 -2.24,-0.18l3.13 -2.09c0.42,-0.27 0.68,-0.48 1.12,-0.71l-9.61 -14.79c-0.28,-0.37 -0.15,-0.24 -0.65,-0.44 -1.07,-0.42 -1.99,-0.76 -3.06,-1.19l-3.07 -1.18c0.36,-0.31 0.93,-0.5 1.34,-0.72 0.52,-0.29 0.85,-1.06 1.41,-1.87 0.64,-0.92 -0.08,-1.18 -0.08,-2.63 0.54,0.36 0.85,0.87 1.39,1.28 0.58,0.45 0.87,0.86 1.41,1.27 0.31,0.24 0.41,0.35 0.7,0.64 0.69,0.7 0.9,0.32 2.92,-0.18 0.67,-0.17 1.4,-0.32 2.16,-0.51 3.06,-0.77 2.37,-0.18 2.83,-2.51 0.13,-0.64 0.37,-1.75 0.37,-2.42 -0.53,-0.28 -1.15,-0.54 -1.74,-0.81l-9.11 -4.13c-0.66,-0.31 -1.18,-0.54 -1.85,-0.82 -0.57,-0.24 -1.32,-0.67 -1.87,-0.8l-10.56 15.54zm23.55 1.21l6.31 2.91c0.19,-0.28 0.39,-0.44 0.61,-0.73 1.82,-2.34 8.03,-9.56 9.11,-11.17 -0.3,-0.45 -6.49,-4.63 -6.92,-4.74 -0.86,1.28 -8.95,13.15 -9.11,13.72zm6.8 3.64l2.58 2.4c0.25,0.23 0.3,0.22 0.54,0.43 0.51,0.43 0.49,0.6 1.13,0.94 1.28,-0.86 5.72,-5.18 7.32,-6.52l3.36 -3.07c-0.18,-0.26 -0.37,-0.45 -0.59,-0.75 -0.21,-0.28 -0.35,-0.47 -0.57,-0.77l-3.7 -4.68c-0.44,0.29 -9.38,11.22 -10.08,12.02zm-9.59 -17.12l5.34 3.04c-0.14,0.29 -0.73,3.28 -0.73,3.76 0.46,-0.11 2.11,-1.26 2.55,-1.57 0.51,-0.36 4.76,-6.55 5.22,-7.41 -0.64,-0.43 -1.24,-0.8 -1.92,-1.24 -0.75,-0.49 -5.43,-3.49 -5.97,-3.62l-4.49 7.04zm-8.38 -3.4c0.4,0.09 0.56,0.23 0.93,0.41l6.72 2.87 4.37 -7.53c-0.42,-0.1 -1.21,-0.63 -1.58,-0.84 -0.56,-0.32 -1.04,-0.58 -1.62,-0.93 -0.67,-0.4 -2.64,-1.61 -3.23,-1.75 -0.1,0.37 -2.54,3.47 -2.83,3.85 -0.49,0.66 -0.92,1.23 -1.4,1.87 -0.26,0.34 -0.47,0.63 -0.73,0.97 -0.6,0.79 -0.58,0.53 -0.62,1.07zm4.74 14.45c0.12,0.45 0.1,0.27 0.93,0.77 0.72,0.43 2.74,1.65 3.32,1.78 0.3,-0.22 1.14,-1.72 1.37,-2.15 0.31,-0.56 1.17,-1.86 1.3,-2.34l-5.09 1.47c-0.48,0.14 -1.3,0.43 -1.84,0.47zm-39.69 -40.32c1.4,-0.77 44.76,-14.55 45.22,-14.55 0.51,0 44.03,13.9 45.21,14.57 -0.14,13.09 0.16,26.36 0.25,39.45 0.09,14.11 0.39,22.78 -4.54,35.15 -5.39,13.52 -15.98,24.61 -27.8,32.07 -1.32,0.83 -11.9,6.79 -13.12,6.8 -1.12,0.01 -11.63,-5.84 -12.97,-6.69 -2.12,-1.33 -4.16,-2.76 -5.9,-4.12l-5.44 -4.58c-5.73,-5.07 -12.78,-13.7 -16.54,-23.29 -4.95,-12.65 -4.71,-20.61 -4.62,-35.09 0.08,-13.19 0.36,-26.53 0.26,-39.72zm-6.47 -5.21c-0.09,14.81 -0.19,29.62 -0.29,44.43 -0.1,15.57 -0.15,25.6 5.64,38.82 2.36,5.39 5.06,9.88 8.23,14.05 0.87,1.15 1.65,2.2 2.57,3.2 4.67,5.08 8.56,9.24 14.44,13.36 2.23,1.57 4.23,2.93 6.64,4.39 1.52,0.92 13.7,7.33 14.62,7.21 0.85,-0.11 13.28,-6.61 14.73,-7.51 6.39,-3.92 15.08,-10.64 19.8,-16.52 5.16,-6.42 7.77,-9.22 11.77,-18.54 5.73,-13.32 5.59,-23.47 5.48,-38.97 -0.11,-14.6 -0.29,-29.28 -0.28,-43.9 -0.72,-0.52 -50.73,-16.68 -51.67,-16.68 -0.69,-0 -50.88,16.1 -51.68,16.66z"/>
 </g>
</svg>
