<?xml version="1.0" encoding="UTF-8"?>
<!DOCTYPE svg PUBLIC "-//W3C//DTD SVG 1.1//EN" "http://www.w3.org/Graphics/SVG/1.1/DTD/svg11.dtd">
<!-- Creator: CorelDRAW 2019 (64-Bit) -->
<svg xmlns="http://www.w3.org/2000/svg" xml:space="preserve" width="22.1875mm" height="20.3663mm" version="1.1" style="shape-rendering:geometricPrecision; text-rendering:geometricPrecision; image-rendering:optimizeQuality; fill-rule:evenodd; clip-rule:evenodd"
viewBox="0 0 446.66 410"
 xmlns:xlink="http://www.w3.org/1999/xlink"
 xmlns:xodm="http://www.corel.com/coreldraw/odm/2003">
 <defs>
  <style type="text/css">
   <![CDATA[
    .fil0 {fill:#FEFEFE}
   ]]>
  </style>
 </defs>
 <g id="Layer_x0020_1">
  <metadata id="CorelCorpID_0Corel-Layer"/>
  <g id="_2343346059632">
   <path class="fil0" d="M92.47 394.32c3.15,0.26 7.72,1.96 11.04,2.92 3.96,1.15 7.42,2.14 10.95,3.01 40.45,10.05 79.93,13.34 121.59,5.04 3.82,-0.76 37.01,-8.82 37.01,-14.46 0,-19.37 1.65,-57.64 -3.79,-73.85 -9.03,-26.88 -34.56,-46.54 -63.38,-46.54l-47.98 0c-26.44,0 -48.8,18.46 -57.89,36.33 -6.46,12.7 -7.54,20.99 -7.54,39.57 0,15.99 0,31.99 0,47.98z"/>
   <path class="fil0" d="M-0 280.91l0 56.71c0,3.56 11.46,5.07 17.55,6.87 6.68,1.98 12.43,3.1 19.75,4.68 8.96,1.93 33.38,5.89 42.96,5.89 0,-26.74 -0.35,-44.32 17.33,-66.42 7.38,-9.22 16.82,-16.94 27.45,-22.28 3.93,-1.97 8.29,-2.89 11.93,-4.64 -1.26,-4.73 -19.19,-17.04 -19.19,-45.37 -4.42,0 -4.75,-0.87 -9.6,-0.87 -19.15,0 -45.67,-1.46 -62.28,4.02 -25.48,8.4 -45.89,34.03 -45.89,61.41z"/>
   <path class="fil0" d="M227.69 261.72c7.84,1.83 15.95,6.57 21.81,10.46 12.93,8.59 23.16,20.85 29.04,35.52 7.33,18.29 5.85,28.01 5.85,47.36 20.04,0 49.15,-4.92 67.43,-12.83 3.22,-1.39 5.03,-2.95 8.47,-3.75 0,-19.95 1.78,-52.93 -2.43,-70.85 -6,-25.52 -25.93,-44.74 -52.58,-50.36 -14.44,-3.05 -39.95,-1.79 -57.53,-1.79 -2.41,29 -10.65,32.17 -20.06,46.24z"/>
   <path class="fil0" d="M314.93 208.5c1.95,0.94 3.4,1.17 5.75,2.1l15.89 8.54c19.89,13.28 35.07,37.29 35.07,64.38l0 18.32c21.78,0 49.37,-4.61 68.64,-13.37 2.32,-1.05 6.39,-2.28 6.39,-4.95l0 -55.83c0,-33.36 -31.8,-64.56 -62.81,-64.56l-49.73 0c0,27.22 -15.11,37.66 -19.19,45.36z"/>
   <path class="fil0" d="M122.13 57.58c0,18.34 8.15,31.86 20.27,43.42 17.69,16.86 47.7,18.69 69.44,4.42 1.61,-1.06 2.38,-1.83 3.91,-3.07 42.95,-34.92 16.64,-102.35 -35.17,-102.35 -18.61,0 -31.31,7.45 -40.91,16.66 -0.13,0.12 -0.32,0.3 -0.44,0.43 -0.13,0.13 -0.31,0.31 -0.43,0.44 -10.23,10.66 -16.66,24.3 -16.66,40.04z"/>
   <path class="fil0" d="M179.71 266.95c18.04,0 28.93,-4.08 40.79,-15.91 33.45,-33.37 6.71,-89.65 -35.56,-89.65 -14.78,0 -31.14,4.73 -40.65,16.06 -8.42,10.03 -14.42,19.45 -14.82,36.39 -0.39,16.34 6.78,27.26 14.32,36.68 2.61,3.25 11.03,9.21 14.95,11.22 4.66,2.39 13.86,5.21 20.97,5.21z"/>
   <path class="fil0" d="M88.98 212.86c8.56,0 15.47,-1.94 21.7,-4.47 11.35,-4.61 6.56,-5.08 10.45,-15.72 3.27,-8.97 8.7,-17.64 15.17,-24.09 4.71,-4.7 6.77,-4.7 6.77,-7.19 0,-56.92 -72.55,-73.7 -98.55,-28.76 -14.57,25.18 -6.74,55.51 14.43,70.13 7.37,5.09 18.05,10.1 30.03,10.1z"/>
   <path class="fil0" d="M303.59 106.43c8.1,2.16 20.84,18.32 24.94,27.4 3.35,7.4 5.43,19.38 5.98,20.19 2.73,4 17.5,5.62 24.04,5.62 42.52,0 68.92,-54.69 37.31,-88.78 -32.91,-35.48 -92.27,-11.67 -92.27,35.56z"/>
   <path class="fil0" d="M217.23 156.16c0,7.74 11.45,5.55 24.15,30.81 9.73,19.35 -0.96,20.03 15.27,23.99 26.25,6.4 49.5,-5.5 60.93,-28.61 13.22,-26.74 0.49,-57.71 -24.72,-70.41 -33.13,-16.69 -75.62,8.56 -75.62,44.22z"/>
   <path class="fil0" d="M151.79 156.16c3.33,-0.28 3.17,-0.81 5.86,-1.99 12.01,-5.24 26.09,-6.4 38.99,-3.61 4.33,0.93 6.97,2.65 10.98,2.98 0.14,-6.17 2.19,-13.72 4.1,-18.58 1.18,-3 1.94,-5.18 3.47,-7.87 1.64,-2.89 2.97,-4.1 3.77,-7.57 -5.53,0 -7.28,-0.87 -13.09,-0.87 -9.81,0 -53.22,-0.51 -59.78,0.44 -3.5,0.51 -4.93,-0.22 -5.13,1.97l5.48 9.91c1.77,4.35 2.56,5.8 3.79,11.04 1.19,5.06 1.56,7.37 1.56,14.14z"/>
  </g>
 </g>
</svg>
