<?xml version="1.0" encoding="UTF-8"?>
<!DOCTYPE svg PUBLIC "-//W3C//DTD SVG 1.1//EN" "http://www.w3.org/Graphics/SVG/1.1/DTD/svg11.dtd">
<!-- Creator: CorelDRAW X7 -->
<svg xmlns="http://www.w3.org/2000/svg" xml:space="preserve" width="50.9653mm" height="59.5045mm" version="1.1" style="shape-rendering:geometricPrecision; text-rendering:geometricPrecision; image-rendering:optimizeQuality; fill-rule:evenodd; clip-rule:evenodd"
viewBox="0 0 972 1135"
 xmlns:xlink="http://www.w3.org/1999/xlink">
 <defs>
  <style type="text/css">
   <![CDATA[
    .str0 {stroke:#2B2A29;stroke-width:1.45286}
    .fil0 {fill:#2B2A29}
   ]]>
  </style>
 </defs>
 <g id="Layer_x0020_1">
  <metadata id="CorelCorpID_0Corel-Layer"/>
  <path class="fil0 str0" d="M52 237c7,0 20,-5 29,-8 48,-14 97,-31 143,-49 29,-12 80,-32 109,-47 17,-8 34,-16 52,-25l100 -53 100 52c32,18 70,33 105,49 52,23 114,45 169,64l60 17c0,166 15,295 -34,444 -7,20 -14,39 -23,57 -46,97 -77,136 -150,210 -25,26 -84,71 -114,88 -27,15 -85,49 -113,49 -13,0 -48,-15 -59,-21 -21,-11 -57,-29 -76,-43 -53,-39 -105,-78 -147,-132 -31,-39 -40,-50 -66,-95 -41,-68 -71,-163 -80,-241 -11,-89 -5,-217 -5,-316zm-51 -13l0 222c0,100 13,176 38,252 34,103 72,157 132,232 13,15 56,60 73,73l40 33c8,6 12,9 21,15l44 29c43,26 91,54 143,54 33,0 98,-35 127,-52 9,-6 16,-10 24,-15 7,-4 12,-9 20,-14 20,-13 88,-69 101,-84l67 -78c160,-214 139,-410 139,-667 0,-29 -25,-31 -48,-38 -105,-30 -218,-75 -316,-124l-86 -47c-49,-29 -42,-10 -125,31 -110,54 -156,79 -277,119l-101 31c-11,5 -16,14 -16,28zm662 712c0,11 10,11 16,11 6,0 47,-39 54,-47l22 -28c3,-4 8,-10 7,-17 -1,-9 -13,-21 -26,-3 -3,5 -6,9 -9,14l-21 24c-20,20 -13,13 -34,31 -5,4 -9,7 -9,15zm-31 18c0,19 27,19 27,0 0,-17 -27,-14 -27,0zm-555 -687l0 40c0,5 4,8 8,9 17,4 12,-25 12,-40 8,-2 36,-13 45,-16 3,-2 10,-4 10,-11 0,-3 -3,-7 -5,-9 -4,-2 -7,-2 -11,0l-42 15c-7,2 -17,3 -17,12zm82 -31c0,17 20,11 20,4l0 -6c0,-9 -20,-10 -20,2zm508 566l-11 0 0 -50 20 -1 0 42c0,5 -4,9 -9,9zm-371 -25c0,-12 10,-25 25,-25l315 0 0 50 -311 0c-12,0 -22,-4 -27,-14 0,-2 -2,-9 -2,-11zm40 -105c14,0 20,-3 20,16 0,9 -2,17 3,21 11,9 37,-7 37,15l0 7 -60 0 0 -59zm332 59l-52 0 0 -7c0,-22 25,-6 36,-14 6,-5 4,-12 4,-21 0,-19 5,-17 20,-17l0 49c0,6 -2,10 -8,10zm-352 -156l0 157c-8,0 -16,4 -20,7l0 -372c0,-15 2,-30 20,-34l0 151c0,19 20,14 20,4l0 -76 13 0c13,0 27,-14 27,-27l0 -13 13 0c13,0 27,-14 27,-27l0 -13 180 0 0 13c0,13 14,27 27,27l13 0 0 13c0,13 14,27 27,27l13 0 0 239c-14,0 -20,-1 -30,8 -11,8 -10,20 -10,32 -14,0 -20,-1 -30,8 -11,8 -10,20 -10,32l-180 0c0,-12 1,-23 -9,-32 -11,-9 -18,-8 -31,-8 0,-12 1,-23 -9,-32 -11,-8 -18,-8 -31,-8l0 -76c0,-12 -20,-12 -20,0zm300 -235l0 -8 51 0c5,0 9,4 9,9l0 51 -8 0c-22,0 -6,-29 -15,-37 -8,-9 -37,7 -37,-15zm-272 52l-8 0 0 -60 60 0 0 8c0,22 -29,6 -38,15 -8,8 7,37 -14,37zm-68 -38l0 427c0,11 7,22 13,28 6,6 18,13 29,13l353 0c12,0 25,-13 25,-25l0 -460c0,-12 -13,-25 -25,-25l-353 0c-21,0 -42,22 -42,42zm175 149c0,14 3,24 7,34 5,10 11,18 18,25 17,17 35,24 61,24 9,0 16,-2 23,-4 -9,14 -34,27 -53,27 -15,0 -26,0 -39,-7 -41,-23 -54,-76 -23,-114 3,-5 4,-7 10,-9 -2,8 -4,14 -4,24zm-43 25c0,26 2,42 17,63 37,53 123,53 158,-6 4,-6 12,-22 12,-31 0,-3 -5,-16 -21,-3 -20,16 -47,19 -68,8 -18,-9 -34,-30 -34,-53 0,-39 20,-42 20,-51 0,-18 -16,-11 -25,-7 -33,13 -59,44 -59,80zm133 -53c8,-2 15,-6 17,-13l2 0c2,8 9,11 17,13 -5,9 -7,5 -7,21 -8,-1 -9,-6 -22,1 0,-18 -2,-12 -7,-22zm-28 -6c0,6 6,11 11,18 6,8 1,13 3,25 1,5 5,9 10,9l21 -7c6,0 18,7 23,7 14,0 9,-20 10,-28 0,-3 1,-3 3,-6 7,-9 20,-22 2,-28l-16 -5c-7,-4 -17,-36 -32,-13 -10,15 -7,12 -24,17 -6,2 -11,4 -11,11zm-197 61c0,15 20,15 20,0 0,-11 -20,-11 -20,0z"/>
 </g>
</svg>
