<?xml version="1.0" encoding="UTF-8"?>
<!DOCTYPE svg PUBLIC "-//W3C//DTD SVG 1.1//EN" "http://www.w3.org/Graphics/SVG/1.1/DTD/svg11.dtd">
<!-- Creator: CorelDRAW X7 -->
<svg xmlns="http://www.w3.org/2000/svg" xml:space="preserve" width="48.786mm" height="48.786mm" version="1.1" style="shape-rendering:geometricPrecision; text-rendering:geometricPrecision; image-rendering:optimizeQuality; fill-rule:evenodd; clip-rule:evenodd"
viewBox="0 0 1848 1848"
 xmlns:xlink="http://www.w3.org/1999/xlink">
 <defs>
  <style type="text/css">
   <![CDATA[
    .fil0 {fill:black}
   ]]>
  </style>
 </defs>
 <g id="Layer_x0020_1">
  <metadata id="CorelCorpID_0Corel-Layer"/>
  <path class="fil0" d="M556 1555c0,-39 36,-76 75,-76 81,0 170,-17 170,98l0 209 -245 0 0 -231zm-495 25c0,-119 85,-101 170,-101 39,0 76,37 76,76l0 231 -246 0 0 -206zm33 -252c0,-55 38,-94 87,-97 45,-2 93,38 93,82l0 19c0,66 -90,113 -152,58 -12,-11 -28,-40 -28,-62zm675 -4c0,95 -132,126 -175,38 -17,-36 -3,-80 18,-104 48,-51 157,-25 157,66zm-246 -3c0,44 9,39 11,65l-40 0 0 -524 -65 0 0 524 -101 0c2,-20 11,-28 11,-62l0 -776c0,-9 -11,-25 -32,-25 -34,0 -43,68 -58,115 -5,15 -11,30 -16,46l-42 135c-13,52 -49,46 -64,32 -23,-23 6,-91 20,-138l54 -184c18,-55 69,-96 142,-96 51,0 197,8 232,-6 9,-4 11,-6 18,-10 34,-21 288,-150 298,-150 31,0 55,43 18,68 -35,23 -307,154 -318,169 -12,16 -6,143 -6,171 0,38 4,514 -3,527 -3,5 -8,8 -12,11 -27,22 -47,67 -47,108zm-151 -1036c0,-131 180,-131 180,0 0,24 -14,46 -28,59 -33,32 -91,32 -125,0 -13,-13 -27,-35 -27,-59zm-65 -7c0,49 24,74 29,90 -34,1 -68,12 -92,24 -32,16 -42,27 -65,51 -38,40 -51,105 -68,166 -17,59 -36,122 -53,182 -9,35 -6,62 11,89 39,59 132,63 172,-11l26 -78c1,-3 3,-11 4,-14 3,-8 2,-6 7,-12l0 433c-12,-3 -6,-2 -17,-9 -129,-79 -291,76 -210,210 17,28 16,21 25,34 -42,27 -76,60 -76,122l0 264c0,17 11,29 29,29l310 0c26,0 33,-21 33,-47l0 -228c0,-86 -39,-103 -54,-126l227 0c-18,26 -54,43 -54,123l0 238c0,22 10,40 32,40l314 0c10,0 25,-16 25,-26l0 -270c0,-57 -34,-92 -75,-119 5,-8 6,-7 11,-14 7,-8 6,-8 12,-17 9,-16 12,-22 17,-41 16,-59 -8,-123 -54,-160 -42,-33 -76,-32 -127,-32l0 -617c0,-14 77,-49 91,-56 18,-9 31,-16 48,-25 19,-9 32,-17 50,-26 17,-9 30,-15 48,-24 51,-25 109,-50 109,-118 0,-27 -14,-54 -32,-72l-30 -20c-46,-20 -88,3 -120,22l-207 106c37,-71 -1,-165 -71,-200 -109,-53 -225,28 -225,139zm-307 -249l0 617 61 0 0 -585 1725 0 0 668c0,8 -2,11 -11,11l-1068 0 0 61 1115 0c10,0 26,-15 26,-25l0 -747c0,-18 -12,-29 -29,-29l-1790 0c-18,0 -29,11 -29,29zm1541 1526c0,-39 36,-76 76,-76 85,0 169,-18 169,101l0 206 -245 0 0 -231zm122 -140c-45,0 -90,-39 -90,-83l0 -19c0,-45 47,-82 90,-82 81,0 121,101 64,157 -12,13 -39,27 -64,27zm-155 -94c0,25 4,48 15,68 2,5 10,17 14,22 6,9 11,13 15,25 -42,10 -76,78 -76,137l0 228c0,26 7,47 32,47l311 0c17,0 29,-12 29,-29l0 -264c0,-32 -10,-54 -24,-74 -18,-27 -27,-31 -52,-48 13,-21 30,-28 40,-72 26,-112 -66,-192 -130,-192 -47,0 -98,5 -133,48 -22,28 -41,55 -41,104zm-462 256c0,-115 90,-98 170,-98 39,0 76,37 76,76l0 231 -246 0 0 -209zm123 -162c-98,0 -124,-138 -37,-175 83,-35 152,48 122,119 -12,29 -45,56 -85,56zm-108 18c-41,27 -76,62 -76,119l0 270c0,10 15,26 25,26l314 0c22,0 33,-18 33,-40l0 -238c0,-61 -37,-125 -76,-134 2,-9 97,-117 1,-221 -73,-79 -217,-52 -256,50 -10,28 -14,61 -6,93 11,48 22,46 41,75zm-47 -1271l0 55 621 0c0,-43 6,-65 -11,-65l-599 0c-9,0 -11,2 -11,10zm94 239l617 0 0 -62 -617 0 0 62zm-123 184l617 0 0 -62 -617 0 0 62z"/>
 </g>
</svg>
