<?xml version="1.0" encoding="UTF-8"?>
<!DOCTYPE svg PUBLIC "-//W3C//DTD SVG 1.1//EN" "http://www.w3.org/Graphics/SVG/1.1/DTD/svg11.dtd">
<!-- Creator: CorelDRAW 2019 (64-Bit) -->
<svg xmlns="http://www.w3.org/2000/svg" xml:space="preserve" width="24.6822mm" height="19.5488mm" version="1.1" style="shape-rendering:geometricPrecision; text-rendering:geometricPrecision; image-rendering:optimizeQuality; fill-rule:evenodd; clip-rule:evenodd"
viewBox="0 0 246.37 195.13"
 xmlns:xlink="http://www.w3.org/1999/xlink"
 xmlns:xodm="http://www.corel.com/coreldraw/odm/2003">
 <defs>
  <style type="text/css">
   <![CDATA[
    .fil0 {fill:#2B2A29}
   ]]>
  </style>
 </defs>
 <g id="Layer_x0020_1">
  <metadata id="CorelCorpID_0Corel-Layer"/>
  <path class="fil0" d="M7.65 144.12c0,-16.47 -3.37,-54.33 6.14,-62.73 9.15,-8.09 10.23,0.24 18.1,0.24 9.73,0 14.77,-7.27 21.84,-0.18 7.15,7.17 4.94,48.68 4.94,61.4l-51.02 1.28zm72.7 -45.91c-5.76,-0.13 -13.46,-0.87 -14.03,-7.65 13.89,3.24 6.62,11.94 25.2,-14.34 2.62,-3.7 1.77,-3.65 6.69,-4.79 -4.59,8.67 -16.56,21.93 -17.86,26.78zm-47.19 -38.26c-14.93,0 -15.67,-25.51 0,-25.51 16.75,0 16.31,25.51 0,25.51zm7.65 -31.88c-6.18,-2.97 -14.94,-0.95 -19.39,2.29 -16.85,12.28 -7.29,37.25 10.46,37.25 33.97,0 17.85,-34.36 17.85,-35.71 0,-11.11 -0.89,-13.65 1.28,-22.96 13.33,-3.11 106.37,-1.28 127.54,-1.28 3.92,0 7.65,1.18 7.65,5.1l0 75.25c0,7.4 -11.95,5.11 -19.13,5.1l-72.7 -0c2.05,-3.87 3.27,-5.71 6.02,-9.28 11.19,-14.57 1.06,-12.81 6.59,-21.36 4.26,-6.57 19.99,-22.92 7.79,-22.92 -4.93,0 -13.06,19.3 -18.95,23.14 -6.97,4.56 -3.52,-1.77 -11.68,10 -2.94,4.24 -5.96,8.35 -8.91,12.77 -5.77,-3.05 -9.59,-3.91 -14.35,-8.6 -15.08,-14.87 -16.87,-4.15 -29.01,-4.15 -5.14,0 -8.7,-3.83 -10.2,-3.83 -11.71,0 -21.68,12.32 -21.68,24.23l0 54.84c0,2.94 0.89,3.83 3.83,3.83 73.51,0 63.79,5.53 63.77,-20.4 -0.01,-8.93 0,-17.86 0,-26.78 5.41,0.45 8.93,2.64 14.03,3.83 3.25,-2.18 3.98,-2.19 5.1,-6.38l91.87 0.04c8.73,-0.36 16.53,-5.65 16.53,-14.07l0 -72.7c0,-8.23 -4.77,-15.3 -12.75,-15.3l-128.81 0c-6.07,0 -9.8,4.45 -11.58,8.83 -1.88,4.62 -1.18,12.59 -1.18,19.23zm39.54 137.74c5.13,0 10.38,3.83 14.03,3.83 7.49,0 18.03,-9.8 25.16,5.45 2,4.28 1.1,6.12 2.9,9.86 8.62,-0.19 4.93,-3.27 7.61,-10.24 6.12,-15.95 18.45,-5.06 23,-5.06 7.49,0 18.03,-9.8 25.16,5.45 2,4.28 1.1,6.12 2.9,9.86 8.28,-0.18 5.08,-3.01 7.84,-10.02 5.53,-14.04 13.4,-6.56 26.6,-6.56 6.04,0 8.15,-2.55 11.48,-2.55 10.59,0 11.48,13.86 11.48,21.68l-169.63 0c0.09,-4.08 1.43,-10.61 2.89,-13.69 1.3,-2.76 5.71,-7.99 8.59,-7.99zm-17.86 12.75c0,11.68 -1.62,16.58 3.83,16.58l176 0c5.44,0 3.83,-4.9 3.83,-16.58 0,-9.08 -10.52,-20.41 -20.41,-20.41 -2.87,0 -7.77,3.83 -11.48,3.83 -6.36,0 -8.45,-3.83 -14.03,-3.83 -8,0 -11.61,6.87 -16.58,10.2 -5.16,-3.46 -9.12,-10.2 -17.86,-10.2 -2.75,0 -5.7,3.83 -10.2,3.83 -9.8,0 -9.61,-8.36 -23.44,-0.48 -3.7,2.11 -4.81,2.79 -5.89,6.86 -7.28,-1.94 -8.76,-10.2 -19.13,-10.2 -3.03,0 -5.07,3.83 -11.48,3.83 -5.7,0 -9.47,-3.83 -12.75,-3.83 -9.89,0 -20.41,11.32 -20.41,20.41zm151.77 -28.06c-16.44,0 -13.98,-16.03 -9.89,-20.1 9.37,-9.34 21.37,-0.13 21.37,8.62 0,5.24 -5.12,11.48 -11.48,11.48zm-20.41 -11.48c0,25.73 38.26,23.97 38.26,2.55 0,-10.08 0.76,-10.66 -6.63,-17.6 -11.25,-10.59 -31.63,-2.49 -31.63,15.05zm-110.96 1.28c0,-16.07 24.23,-21.51 24.23,1.28 0,8.19 -13.93,12.25 -20.1,6.07 -0.84,-0.84 -4.13,-6.58 -4.13,-7.34zm-6.38 -5.1c0,11.04 2.71,22.96 19.13,22.96 26.24,0 23.38,-38.26 2.55,-38.26l-6.38 0c-6.58,0 -15.3,8.73 -15.3,15.3zm66.32 5.1c0,-6.95 2.11,-14.03 11.48,-14.03 12.87,0 18.69,24.23 -1.27,24.23 -6.17,0 -10.2,-4.03 -10.2,-10.2zm-7.65 -3.83c0,31.58 38.26,24.28 38.26,5.1 0,-32.04 -38.26,-24.43 -38.26,-5.1zm-69.44 -109.38c-2.11,0 -3.83,-1.71 -3.83,-3.83 0,-2.11 1.71,-3.83 3.83,-3.83l105.71 0c2.11,0 3.83,1.71 3.83,3.83 0,2.11 -1.71,3.83 -3.83,3.83l-105.71 0zm57.4 26.07c-2.11,0 -3.83,-1.71 -3.83,-3.83 0,-2.11 1.71,-3.83 3.83,-3.83l48.31 0c2.11,0 3.83,1.71 3.83,3.83 0,2.11 -1.71,3.83 -3.83,3.83l-48.31 0zm-11.72 25.11c-2.11,0 -3.83,-1.71 -3.83,-3.83 0,-2.11 1.71,-3.83 3.83,-3.83l60.03 0c2.11,0 3.83,1.71 3.83,3.83 0,2.11 -1.71,3.83 -3.83,3.83l-60.03 0z"/>
 </g>
</svg>
